<?xml version="1.0" standalone="no"?>
<!DOCTYPE svg PUBLIC "-//W3C//DTD SVG 20010904//EN"
 "http://www.w3.org/TR/2001/REC-SVG-20010904/DTD/svg10.dtd">
<svg version="1.0" xmlns="http://www.w3.org/2000/svg"
 width="366.000000pt" height="366.000000pt" viewBox="0 0 366.000000 366.000000"
 preserveAspectRatio="xMidYMid meet">
<metadata>
Created by potrace 1.11, written by Peter Selinger 2001-2013
</metadata>
<g transform="translate(0.000000,366.000000) scale(0.100000,-0.100000)"
fill="#000000" stroke="none">
<path d="M2080 3582 c-39 -5 -164 -44 -175 -55 -6 -6 3 -6 25 -1 19 4 56 8 82
7 26 0 45 4 42 8 -3 5 -13 9 -22 10 -14 0 -13 2 3 8 24 10 80 6 133 -9 42 -11
106 -62 94 -75 -4 -3 0 -5 8 -3 10 2 15 -4 14 -19 0 -18 2 -20 13 -12 9 8 17
8 26 2 6 -6 24 -13 40 -15 21 -4 25 -2 17 7 -23 27 30 27 90 0 22 -10 40 -24
40 -32 0 -16 12 -17 27 -2 8 8 13 8 18 0 3 -7 1 -10 -6 -9 -15 3 -19 -24 -5
-34 19 -13 23 -92 6 -113 -5 -7 -6 -16 -2 -20 4 -5 2 -5 -4 -2 -7 4 -17 0 -24
-8 -14 -17 -80 -21 -80 -4 0 5 15 16 34 24 34 15 46 31 46 67 0 18 -30 59 -30
41 0 -4 -4 -3 -8 2 -4 6 -19 16 -33 22 -27 11 -27 11 -25 -30 0 -23 5 -46 11
-50 6 -5 4 -7 -5 -4 -8 2 -16 9 -16 15 -1 7 -3 15 -4 20 -1 4 -2 10 -2 13 1 4
-9 18 -22 32 -13 14 -22 27 -20 29 2 2 -6 5 -18 5 -19 2 -17 -1 10 -28 32 -31
49 -79 36 -100 -5 -8 -3 -10 7 -4 11 6 12 5 2 -6 -7 -7 -13 -21 -13 -31 0 -26
-20 -22 -22 5 0 12 -2 28 -2 36 -1 8 -7 16 -13 18 -8 3 -11 -5 -8 -26 4 -34
-30 -93 -56 -97 -15 -2 -15 1 -3 25 16 31 18 77 4 86 -6 4 -8 11 -5 16 4 5 1
9 -4 9 -6 0 -11 6 -11 14 0 8 -9 17 -20 21 -26 8 -92 9 -117 1 -15 -5 -35 5
-72 34 -50 39 -73 46 -29 9 11 -11 17 -19 12 -19 -5 0 2 -8 16 -18 28 -19 36
-52 20 -82 -13 -25 -4 -26 24 -3 12 10 16 11 9 4 -6 -7 -9 -20 -6 -28 4 -11
-1 -13 -22 -7 -24 6 -27 4 -22 -10 4 -10 3 -15 -4 -11 -5 4 -15 2 -22 -4 -16
-12 -40 -9 -61 8 -8 7 -19 10 -24 8 -4 -3 -14 -1 -22 4 -13 8 -12 11 3 20 9 5
26 19 36 30 16 17 19 18 24 5 4 -9 0 -22 -9 -30 -8 -8 -10 -17 -5 -21 16 -9
23 14 26 81 1 41 -2 65 -10 68 -7 2 -11 -9 -10 -35 2 -50 -29 -79 -85 -79 -48
0 -52 12 -7 28 17 6 38 20 44 31 11 17 10 19 -2 15 -8 -4 -15 -11 -15 -17 0
-6 -3 -7 -7 -4 -3 4 -11 3 -17 -2 -16 -13 -86 -25 -86 -15 1 5 19 22 41 37 23
16 38 31 35 34 -3 4 -13 -2 -21 -13 -8 -10 -15 -15 -15 -11 0 5 -7 1 -16 -7
-10 -11 -32 -16 -67 -15 -29 1 -41 4 -27 6 44 7 77 24 77 39 0 18 -11 18 -26
0 -13 -16 -64 -15 -136 2 -39 9 -40 9 -12 16 15 5 27 12 27 17 0 13 -3 12 -65
-16 -31 -13 -54 -29 -51 -34 3 -5 -1 -12 -10 -15 -8 -3 -13 -10 -9 -15 3 -5 1
-12 -5 -16 -6 -4 -7 -11 -4 -17 4 -6 -1 -8 -12 -6 -15 3 -19 12 -19 43 -1 100
100 165 215 141 45 -10 95 -20 105 -21 6 -1 31 7 56 16 26 10 51 14 59 9 7 -4
24 -4 39 0 28 8 71 -3 71 -18 0 -5 12 -14 26 -21 20 -9 34 -9 62 1 25 9 36 10
39 2 7 -22 31 -49 38 -42 4 3 0 19 -8 35 -14 26 -20 28 -74 28 -47 0 -63 4
-83 23 -20 19 -32 22 -60 18 -19 -3 -59 -7 -88 -9 -29 -2 -57 -8 -63 -14 -8
-8 -28 -6 -73 6 -33 9 -70 16 -82 15 -54 -4 -95 -17 -130 -41 -22 -15 -50 -27
-63 -28 -24 -2 -44 -25 -22 -25 6 0 11 -7 11 -15 0 -8 -4 -15 -9 -15 -16 0
-81 -71 -87 -95 -11 -43 0 -77 33 -102 30 -23 31 -23 26 -4 -3 11 -10 19 -15
18 -17 -3 -17 31 -1 45 13 10 14 9 11 -10 -1 -11 0 -20 3 -19 4 1 16 -7 28
-17 12 -11 21 -14 21 -8 0 11 13 10 42 -2 21 -9 51 -73 44 -92 -7 -17 -26 -19
-26 -1 -1 21 -58 70 -75 63 -9 -3 -13 -10 -10 -16 4 -6 -5 -10 -19 -10 -14 0
-26 -4 -26 -8 0 -5 17 -8 38 -7 23 1 36 7 34 14 -1 7 2 10 7 7 5 -4 9 -14 9
-24 -1 -35 21 -72 44 -72 31 0 44 10 54 40 20 63 -5 103 -80 125 -57 17 -66
27 -66 73 0 39 4 39 36 7 14 -14 28 -25 32 -25 18 1 30 18 34 45 3 27 7 30 42
33 23 2 59 -5 91 -18 28 -12 58 -20 66 -18 8 2 13 -2 12 -8 -1 -7 3 -11 10
-10 18 2 116 -48 117 -59 0 -12 64 -36 102 -38 14 -1 24 -5 21 -9 -9 -15 53
-30 105 -25 43 3 59 10 83 34 17 16 31 36 32 44 2 8 5 19 8 24 3 6 5 25 4 43
-1 26 1 30 12 19 8 -7 15 -26 17 -43 4 -32 -21 -104 -36 -104 -5 0 -7 -4 -3
-10 3 -5 15 -6 28 -1 12 4 39 6 59 4 30 -3 40 2 57 23 12 15 21 22 21 17 0 -5
-5 -14 -12 -21 -12 -12 -9 -14 32 -16 14 0 25 -4 25 -7 0 -12 38 -49 50 -49
16 0 42 -32 39 -47 -1 -7 -2 -20 -3 -28 0 -8 -23 -36 -51 -62 -27 -25 -47 -50
-44 -54 2 -4 0 -10 -5 -13 -13 -9 -9 -27 17 -67 23 -36 30 -33 10 4 -7 12 -13
29 -14 36 -4 22 26 68 53 82 12 7 21 15 18 17 -3 3 1 10 9 16 22 18 37 75 25
97 -5 11 -14 17 -19 14 -6 -3 -7 1 -4 9 4 11 0 16 -13 16 -26 0 -48 46 -27 54
23 9 56 7 50 -2 -3 -5 4 -18 14 -30 11 -12 20 -25 20 -31 0 -5 7 -12 16 -15 8
-3 12 -10 9 -16 -3 -5 -1 -10 4 -10 20 0 11 26 -19 55 -35 34 -38 50 -10 65
16 9 23 6 37 -11 10 -12 24 -27 30 -34 10 -11 10 -14 0 -18 -9 -4 -9 -6 0 -6
19 -2 24 16 9 32 -8 8 -12 18 -8 22 4 5 2 6 -3 2 -6 -3 -16 3 -23 13 -18 30 5
36 34 9 43 -41 53 -126 20 -184 -15 -28 -16 -28 -11 -5 14 76 15 100 1 100 -8
0 -12 -10 -11 -27 2 -33 -19 -89 -43 -116 -18 -20 -55 -38 -83 -42 -40 -4 -59
-53 -36 -89 20 -29 5 -56 -25 -48 -21 5 -78 39 -106 63 -11 9 -13 8 -10 -7 2
-10 17 -25 33 -33 39 -18 66 -42 59 -52 -3 -5 0 -9 6 -9 6 0 8 -4 5 -10 -3 -5
-1 -10 5 -10 7 0 9 8 5 19 -4 15 -1 18 18 14 42 -8 55 28 35 101 -2 5 4 10 12
11 8 2 20 4 25 5 36 8 66 -2 75 -25 14 -36 19 -31 10 10 -9 41 3 46 26 10 18
-28 26 -143 11 -163 -6 -7 -7 -15 -4 -19 4 -3 2 -12 -5 -20 -13 -16 -12 -132
2 -166 6 -16 8 -3 8 48 -1 39 2 84 6 100 25 108 25 140 -2 217 -21 60 -20 70
6 61 47 -17 78 -109 67 -198 -3 -27 -7 -67 -8 -87 -1 -21 -4 -38 -7 -38 -3 0
-6 -9 -7 -19 -1 -15 3 -18 15 -14 13 4 12 2 -3 -10 -17 -14 -17 -16 -4 -17 9
0 20 -7 23 -16 3 -8 2 -12 -4 -9 -6 3 -7 -1 -4 -9 3 -9 11 -16 16 -16 6 0 7
-7 4 -16 -3 -9 -2 -12 4 -9 11 7 80 -58 80 -75 0 -5 10 -19 23 -31 12 -12 17
-19 11 -16 -7 4 -10 -5 -9 -24 1 -16 -2 -32 -6 -34 -4 -3 -6 -16 -4 -30 1 -14
-1 -25 -5 -25 -4 0 -15 -15 -24 -32 -22 -41 -60 -70 -80 -62 -23 9 -20 17 19
64 32 39 41 59 35 85 -1 6 -3 18 -5 27 -4 19 -55 78 -55 64 0 -5 -7 -3 -15 4
-15 13 -39 5 -30 -11 3 -5 -2 -6 -11 -2 -12 4 -15 3 -10 -6 4 -6 16 -9 26 -6
50 16 84 -105 42 -147 -16 -17 -17 -14 -16 44 2 65 -3 88 -16 88 -10 0 -8 -20
3 -37 6 -9 3 -11 -7 -7 -9 3 -16 10 -16 16 0 5 -4 6 -10 3 -5 -3 -10 0 -10 8
0 7 -7 14 -15 14 -23 0 -18 -12 10 -27 14 -7 32 -26 39 -42 13 -26 13 -28 -5
-28 -10 0 -19 5 -19 12 0 6 -3 9 -6 6 -3 -4 0 -17 7 -30 16 -29 13 -92 -6
-129 -20 -38 -38 -48 -25 -15 5 14 6 26 1 26 -5 0 -11 -9 -14 -21 -3 -12 -10
-18 -16 -15 -5 4 -12 2 -16 -4 -3 -5 -17 -10 -31 -10 -37 0 -29 -18 12 -26 44
-8 76 7 106 52 19 28 26 31 54 27 57 -9 122 60 130 137 1 14 3 27 4 30 1 3 3
17 3 32 1 15 5 28 10 28 4 0 13 0 21 0 8 0 15 -8 15 -17 0 -10 3 -43 5 -73 2
-33 0 -61 -7 -69 -7 -7 -12 -19 -13 -25 0 -6 -2 -17 -2 -23 -1 -7 -8 -12 -14
-10 -8 1 -12 -7 -10 -23 2 -19 0 -22 -8 -10 -9 13 -14 7 -11 -12 0 -5 -2 -7
-7 -7 -18 3 -32 -2 -32 -12 0 -5 5 -7 12 -3 7 4 8 3 4 -4 -4 -7 -2 -12 5 -12
7 0 9 -3 6 -6 -4 -4 -13 -1 -22 6 -13 11 -21 6 -55 -29 -49 -54 -68 -94 -74
-156 -5 -55 15 -113 53 -152 13 -14 17 -23 9 -23 -7 0 -29 18 -49 40 -20 22
-35 40 -33 40 1 0 -3 15 -10 33 -7 17 -12 60 -12 95 2 52 7 69 30 100 l27 37
-33 -37 c-39 -42 -46 -81 -38 -203 0 -11 23 -52 50 -92 74 -109 82 -128 73
-171 -4 -20 -7 -41 -8 -46 0 -5 -7 -12 -15 -15 -32 -13 -70 -44 -70 -57 0 -8
-5 -14 -12 -14 -6 0 -9 -2 -6 -5 3 -3 30 6 61 21 47 21 57 30 57 50 0 13 4 24
9 24 4 0 7 -13 5 -30 -2 -16 1 -32 6 -35 12 -8 24 38 18 70 -3 14 -2 25 2 25
3 0 3 23 0 51 -11 84 -2 147 23 161 24 13 67 54 67 63 0 4 -11 0 -25 -9 -37
-24 -54 -19 -23 8 15 13 24 27 21 30 -4 3 -1 6 5 6 7 0 12 -4 12 -10 0 -5 5
-10 11 -10 5 0 7 5 4 10 -3 6 -1 10 5 10 6 0 8 5 5 10 -3 6 -1 10 4 10 6 0 11
4 11 9 0 5 5 22 12 38 6 15 12 30 12 33 1 3 5 11 10 18 4 7 5 16 1 20 -3 3
-10 0 -15 -8 -10 -16 -10 -16 -14 18 -3 24 4 28 21 11 17 -17 80 17 89 49 4
15 7 30 6 35 -1 4 2 7 7 7 13 0 1 41 -21 71 -15 19 -17 31 -10 50 5 13 10 28
10 33 0 5 5 12 11 15 5 4 12 19 15 34 2 14 8 32 11 37 11 18 -4 75 -29 113
-13 19 -27 45 -31 58 -12 38 -48 88 -68 95 -9 3 -15 10 -12 15 4 5 -1 9 -10 9
-9 0 -13 5 -10 10 3 6 1 10 -4 10 -6 0 -11 5 -11 12 0 6 -6 19 -14 27 -16 19
-37 99 -43 161 -2 25 -10 61 -17 80 -15 37 -22 59 -25 75 -4 18 -42 53 -71 65
-24 10 -28 18 -32 59 -4 40 -12 56 -48 92 -39 40 -43 49 -45 99 -2 58 -26 110
-51 110 -8 0 -14 3 -14 8 0 10 -68 41 -105 48 -33 7 -30 7 -99 1 -46 -4 -51
-2 -87 34 -21 22 -43 39 -48 39 -5 0 -16 6 -23 13 -16 17 -85 34 -118 29z
m109 -288 c-6 -16 -3 -26 8 -36 14 -11 16 -10 11 15 -3 15 -2 29 1 32 11 6 12
-45 1 -66 -6 -10 -16 -19 -23 -19 -8 0 -7 4 3 10 8 5 11 12 8 15 -9 10 -28 -3
-28 -19 0 -18 -39 -36 -85 -41 -30 -3 -35 -1 -22 6 10 6 15 15 11 21 -4 6 1 8
14 4 15 -5 24 -1 32 15 10 17 9 20 -1 14 -8 -6 -10 -4 -3 6 4 8 9 20 10 27 3
18 31 38 54 38 14 0 16 -5 9 -22z m276 7 c-3 -5 -1 -12 5 -16 13 -8 3 -25 -13
-25 -8 0 -8 3 2 9 9 6 10 11 2 15 -10 7 -6 26 5 26 3 0 3 -4 -1 -9z m-285
-106 c-7 -8 -17 -15 -23 -15 -6 0 -2 7 9 15 25 19 30 19 14 0z m365 5 c3 -5 1
-10 -4 -10 -6 0 -11 5 -11 10 0 6 2 10 4 10 3 0 8 -4 11 -10z m190 -181 c-4
-6 0 -9 10 -7 10 2 20 -3 22 -10 3 -8 -1 -10 -14 -6 -13 5 -12 0 7 -17 33 -31
56 -111 59 -206 1 -14 8 -23 19 -24 16 -1 16 -2 0 -6 -34 -9 -3 -153 33 -153
6 0 8 -4 5 -9 -3 -5 18 -27 47 -49 28 -23 60 -50 69 -61 17 -20 39 -86 32 -94
-3 -2 -18 8 -35 24 -17 16 -34 28 -37 27 -4 -1 -29 9 -57 22 -90 43 -126 101
-125 198 1 31 0 68 0 82 -2 43 -8 115 -9 118 0 1 0 3 0 5 4 6 -41 85 -55 96
-19 16 -12 31 12 24 10 -2 28 -27 41 -54 12 -28 25 -49 27 -47 10 10 -47 107
-66 113 -20 6 -21 8 -4 26 19 21 29 25 19 8z m-89 -56 c-2 -9 -8 -19 -15 -21
-10 -3 -10 0 -2 17 14 25 20 27 17 4z m-36 -41 c0 -5 -16 -13 -35 -19 -41 -13
-47 -2 -7 14 35 14 42 15 42 5z m263 -262 c20 -23 22 -40 5 -40 -6 0 -8 -3 -5
-6 4 -4 15 -1 24 7 10 7 15 10 12 6 -4 -5 4 -19 18 -33 27 -27 23 -52 -5 -28
-9 8 -30 25 -46 38 -16 13 -30 34 -32 49 -3 32 5 34 29 7z m90 -287 c-4 -10
-2 -14 5 -9 7 4 10 -1 7 -14 -2 -11 1 -20 8 -20 16 0 21 -43 16 -140 0 -19 4
-50 9 -68 10 -31 9 -36 -15 -58 l-27 -25 -17 23 c-15 20 -16 26 -3 58 7 19 15
45 17 57 2 12 6 26 10 29 12 12 8 109 -5 122 -7 7 -8 12 -4 12 5 0 3 7 -4 15
-6 8 -9 19 -5 25 10 16 15 12 8 -7z m105 -49 c-1 -30 -5 -57 -10 -60 -4 -3 -8
-14 -8 -25 0 -10 -4 -19 -8 -19 -4 0 -9 -18 -10 -40 -2 -23 2 -40 8 -40 5 0
10 -4 10 -10 0 -5 -4 -10 -10 -10 -15 0 -29 63 -17 78 5 6 6 12 2 12 -4 0 -2
7 5 15 7 8 10 15 7 15 -3 0 0 15 8 33 8 20 10 39 5 47 -5 8 -4 22 1 32 6 10 7
24 3 30 -4 7 -3 8 4 4 6 -4 10 -31 10 -62z m-138 -349 c0 -66 -33 -131 -81
-158 -46 -27 -74 -18 -57 18 6 14 16 25 22 25 42 0 107 117 85 152 -7 10 -9 9
-9 -5 0 -59 -72 -132 -118 -120 -26 6 -27 13 -8 57 9 21 25 37 47 46 31 12 46
23 82 57 20 19 37 -14 37 -72z m82 45 c-14 -11 -30 -16 -40 -12 -13 5 -10 8
16 16 17 5 32 13 32 19 0 6 3 7 8 3 4 -4 -3 -16 -16 -26z m-255 -192 c-3 -8
-6 -5 -6 6 -1 11 2 17 5 13 3 -3 4 -12 1 -19z m23 -33 c11 -13 10 -14 -4 -9
-9 3 -16 10 -16 15 0 13 6 11 20 -6z m40 -50 c0 -8 -4 -15 -10 -15 -5 0 -7 7
-4 15 4 8 8 15 10 15 2 0 4 -7 4 -15z"/>
<path d="M2835 1969 c-4 -6 -5 -12 -2 -15 2 -3 7 2 10 11 7 17 1 20 -8 4z"/>
<path d="M2809 1923 c-13 -16 -12 -17 4 -4 16 13 21 21 13 21 -2 0 -10 -8 -17
-17z"/>
<path d="M2070 3537 c0 -29 22 -46 56 -43 36 4 59 15 33 17 -57 4 -72 8 -80
20 -5 8 -9 10 -9 6z"/>
<path d="M1328 3373 c-20 -5 -22 -12 -8 -33 9 -13 11 -13 20 0 9 13 14 42 8
39 -2 -1 -11 -3 -20 -6z"/>
<path d="M1270 3330 c0 -5 5 -10 11 -10 5 0 7 5 4 10 -3 6 -8 10 -11 10 -2 0
-4 -4 -4 -10z"/>
<path d="M1219 3284 c-13 -14 -17 -23 -9 -19 13 5 46 45 37 45 -2 0 -14 -11
-28 -26z"/>
<path d="M1305 3301 c-3 -5 -2 -12 3 -15 5 -3 9 1 9 9 0 17 -3 19 -12 6z"/>
<path d="M1150 3249 c0 -5 -4 -8 -8 -5 -5 3 -35 -8 -68 -24 -58 -28 -94 -59
-94 -82 0 -6 -3 -8 -6 -5 -9 8 -64 -65 -58 -75 3 -5 1 -8 -5 -8 -5 0 -13 -10
-17 -22 -4 -13 -6 -23 -4 -23 2 0 -2 -11 -10 -25 -8 -16 -8 -21 -1 -14 6 6 13
19 15 30 5 26 54 97 103 150 36 39 107 84 135 84 7 0 22 7 32 15 17 13 18 15
3 15 -9 0 -17 -5 -17 -11z"/>
<path d="M1177 3222 c-9 -2 -15 -8 -12 -13 6 -8 -8 -13 -27 -10 -5 0 -8 -4 -8
-10 0 -5 -5 -7 -10 -4 -6 3 -13 -1 -16 -9 -3 -9 -10 -14 -14 -11 -12 8 -99
-83 -106 -110 -3 -14 -10 -25 -16 -25 -5 0 -6 -4 -3 -10 3 -5 1 -10 -4 -10 -6
0 -11 -4 -11 -10 0 -23 19 -7 33 28 13 33 77 112 91 112 3 0 27 14 53 30 26
17 51 30 55 30 4 0 8 -17 8 -38 0 -21 5 -43 11 -49 7 -7 9 -19 5 -29 -4 -9 -9
-14 -13 -11 -7 8 -38 -31 -47 -60 -13 -42 -15 -63 -4 -63 13 0 3 -107 -13
-135 -4 -5 -9 -22 -13 -37 -7 -29 -55 -79 -83 -86 -10 -3 -39 -6 -64 -6 -51
-2 -74 -19 -85 -60 -9 -37 -22 -32 -19 7 2 17 -2 38 -8 46 -9 11 -9 13 0 8 6
-4 13 -4 15 1 1 4 22 22 45 40 24 18 42 39 40 45 -1 7 3 11 10 10 7 -2 17 6
23 17 13 25 13 25 -36 1 -91 -45 -141 -122 -128 -196 4 -22 8 -42 9 -45 0 -3
3 -9 6 -15 9 -14 23 -68 20 -78 -1 -5 3 -6 9 -2 6 3 8 10 5 15 -3 5 -1 11 5
15 5 3 10 1 10 -4 0 -6 9 -11 21 -11 18 0 20 -4 15 -27 -6 -25 -5 -26 6 -8 21
34 21 58 1 51 -15 -5 -14 -3 2 10 13 11 16 18 8 21 -16 6 -28 67 -17 90 4 10
8 26 8 35 1 9 5 20 10 25 5 4 6 3 2 -4 -13 -24 29 -33 73 -16 22 9 41 20 41
24 0 4 8 6 19 4 22 -4 57 31 38 39 -9 3 -9 5 1 5 6 1 12 10 12 20 0 11 4 22 9
25 10 6 27 75 36 141 13 100 30 138 62 140 13 1 21 -1 18 -3 -2 -3 5 -14 17
-24 27 -23 125 -23 120 0 -1 8 2 11 9 6 6 -3 15 -1 19 6 9 15 50 24 50 12 0
-5 7 -9 17 -9 12 0 9 6 -11 24 -22 18 -31 21 -47 13 -26 -15 -89 -19 -96 -7
-4 6 0 7 8 3 8 -4 -1 5 -19 21 -18 15 -32 33 -32 39 0 7 -7 14 -15 18 -12 4
-13 2 -5 -12 19 -33 37 -52 50 -52 8 0 4 -10 -10 -25 -23 -25 -24 -25 -42 -5
-10 11 -23 20 -27 20 -9 0 -34 81 -36 117 -1 27 -5 30 -28 25z m193 -177 c6 3
10 1 10 -4 0 -6 -6 -11 -14 -11 -22 0 -46 11 -46 21 0 6 9 5 20 -1 11 -6 25
-8 30 -5z m-425 -272 c-2 -10 -4 -19 -4 -21 -1 -2 -6 0 -11 3 -8 5 -7 11 1 21
15 18 18 18 14 -3z"/>
<path d="M1300 3211 c0 -6 4 -13 10 -16 6 -3 7 1 4 9 -7 18 -14 21 -14 7z"/>
<path d="M1440 3180 c0 -5 5 -10 11 -10 5 0 7 5 4 10 -3 6 -8 10 -11 10 -2 0
-4 -4 -4 -10z"/>
<path d="M1317 3159 c4 -13 8 -18 11 -10 2 7 -1 18 -6 23 -8 8 -9 4 -5 -13z"/>
<path d="M1354 3115 c11 -8 27 -14 35 -14 13 1 12 2 -1 6 -10 2 -18 9 -18 14
0 5 -8 9 -17 9 -16 -1 -16 -2 1 -15z"/>
<path d="M2230 3116 c0 -2 9 -6 20 -9 11 -3 20 -1 20 4 0 5 -9 9 -20 9 -11 0
-20 -2 -20 -4z"/>
<path d="M2256 3072 c-2 -4 11 -8 30 -9 39 -1 40 5 1 13 -14 2 -28 1 -31 -4z"/>
<path d="M1090 3041 c-14 -27 -13 -34 3 -19 8 7 14 18 14 25 0 18 -5 16 -17
-6z"/>
<path d="M2255 3020 c-2 -3 14 -6 36 -7 21 -1 39 2 39 7 0 9 -69 9 -75 0z"/>
<path d="M2570 2990 c-6 -11 -8 -20 -6 -20 3 0 10 9 16 20 6 11 8 20 6 20 -3
0 -10 -9 -16 -20z"/>
<path d="M1061 2968 c-14 -39 -5 -51 9 -13 6 15 13 32 16 36 3 5 1 9 -4 9 -6
0 -15 -14 -21 -32z"/>
<path d="M937 2960 c-3 -11 -3 -20 -1 -20 2 0 8 9 14 20 6 11 7 20 2 20 -6 0
-12 -9 -15 -20z"/>
<path d="M2281 2976 c8 -8 95 -20 88 -12 -4 4 -26 9 -50 12 -24 3 -41 3 -38 0z"/>
<path d="M856 2928 c-9 -35 -7 -80 3 -74 5 4 8 14 7 24 -2 9 0 29 5 45 4 15 4
27 -1 27 -4 0 -10 -10 -14 -22z"/>
<path d="M2330 2920 c0 -5 9 -8 20 -7 21 1 18 10 -5 13 -8 1 -15 -2 -15 -6z"/>
<path d="M1020 2881 c0 -11 -7 -26 -15 -34 -13 -13 -13 -16 0 -21 8 -3 15 -4
15 -3 8 44 10 77 6 77 -3 0 -6 -9 -6 -19z"/>
<path d="M835 2799 c-4 -6 -5 -12 -2 -15 2 -3 7 2 10 11 7 17 1 20 -8 4z"/>
<path d="M2633 2785 c0 -8 4 -15 9 -15 4 0 8 7 8 15 0 8 -4 15 -8 15 -5 0 -9
-7 -9 -15z"/>
<path d="M731 2741 c-7 -5 -9 -11 -4 -14 13 -8 53 3 53 14 0 11 -31 11 -49 0z"/>
<path d="M1049 2733 c-13 -16 -12 -17 4 -4 9 7 17 15 17 17 0 8 -8 3 -21 -13z"/>
<path d="M1010 2709 c0 -5 5 -7 10 -4 6 3 10 8 10 11 0 2 -4 4 -10 4 -5 0 -10
-5 -10 -11z"/>
<path d="M2627 2701 c-4 -17 -3 -21 5 -13 5 5 8 16 6 23 -3 8 -7 3 -11 -10z"/>
<path d="M1480 2670 c-13 -8 -12 -10 3 -10 9 0 17 5 17 10 0 12 -1 12 -20 0z"/>
<path d="M1575 2670 c3 -5 11 -10 16 -10 6 0 7 5 4 10 -3 6 -11 10 -16 10 -6
0 -7 -4 -4 -10z"/>
<path d="M1088 2651 c-10 -10 -24 -18 -31 -18 -43 0 -92 -73 -83 -123 6 -35
18 -60 27 -55 12 8 12 -12 -1 -36 -8 -13 -7 -19 0 -19 18 0 -6 -34 -34 -50
-37 -19 -32 -30 9 -17 19 6 33 13 30 15 -3 3 4 11 14 18 18 13 35 54 23 54 -4
0 -7 19 -7 42 0 36 -3 43 -20 43 -22 0 -28 30 -11 54 9 12 8 13 -3 6 -10 -5
-12 -4 -7 4 4 6 15 10 23 9 9 -2 18 4 20 12 4 12 3 12 -5 1 -7 -9 -12 -10 -16
-2 -7 10 30 31 57 31 7 0 20 12 30 25 21 29 10 32 -15 6z"/>
<path d="M2616 2653 c-6 -14 -5 -15 5 -6 7 7 10 15 7 18 -3 3 -9 -2 -12 -12z"/>
<path d="M721 2633 c-8 -9 -14 -33 -15 -54 -1 -35 -7 -43 -27 -41 -8 1 -6 -54
2 -63 4 -3 9 6 13 20 4 14 11 25 17 25 6 0 8 -9 4 -20 -4 -14 -2 -20 8 -20 33
0 21 -55 -22 -105 -61 -70 -76 -138 -47 -206 15 -35 14 -37 -9 -59 -30 -29
-43 -86 -24 -105 12 -12 14 -6 15 37 1 65 22 85 65 63 15 -8 35 -15 43 -15 10
0 13 -6 10 -15 -4 -8 -1 -21 5 -29 9 -10 7 -21 -6 -45 -10 -17 -21 -31 -25
-31 -5 0 -8 -12 -8 -26 0 -14 -4 -23 -10 -19 -14 9 -12 57 3 80 8 11 17 29 21
39 5 16 4 17 -9 6 -8 -7 -15 -19 -15 -27 0 -8 -4 -11 -10 -8 -5 3 -12 -6 -16
-20 -3 -14 -11 -25 -17 -25 -7 0 -7 -4 1 -12 7 -7 12 -20 12 -29 0 -10 14 -30
30 -46 17 -15 30 -33 30 -39 0 -14 43 -54 58 -54 9 0 8 -7 -3 -24 -23 -35 -51
-117 -50 -146 2 -40 16 -90 25 -90 13 0 1 -105 -16 -131 -10 -17 -12 -119 -2
-119 4 0 8 -7 8 -15 0 -19 47 -65 68 -66 9 -1 27 -1 40 -2 14 0 22 -6 22 -16
0 -22 19 -41 41 -41 24 0 32 -30 24 -95 -5 -36 -4 -55 3 -55 13 0 26 56 16 71
-4 8 -3 9 5 5 9 -6 10 11 7 64 -2 40 -7 74 -10 76 -3 2 -4 1 -1 -2 2 -4 -5
-15 -17 -26 -20 -17 -22 -17 -40 -1 -12 10 -15 20 -9 26 12 12 3 37 -15 37 -8
0 -14 4 -14 9 0 5 -9 12 -20 16 -11 3 -19 9 -18 13 1 4 -3 23 -9 42 -11 38
-11 62 1 98 9 27 18 28 34 2 15 -24 47 -26 56 -4 7 19 -2 33 -12 19 -9 -13
-42 -19 -42 -8 0 5 -18 27 -39 50 -22 23 -37 43 -35 46 2 2 -2 9 -9 15 -17 14
-5 140 17 194 13 31 22 37 65 48 27 6 60 9 73 5 22 -6 22 -6 4 9 -11 9 -35 15
-55 14 -68 -4 -117 28 -139 91 -13 38 4 111 26 111 9 0 11 -7 7 -21 -9 -28 12
-74 41 -94 19 -12 40 -15 94 -10 61 4 72 3 90 -15 12 -12 20 -33 20 -52 -1
-32 -1 -33 -18 -13 -24 29 -64 55 -82 55 -8 -1 2 -10 23 -21 20 -11 37 -26 37
-33 0 -7 7 -20 16 -27 14 -11 19 -10 36 11 24 30 17 66 -21 97 -21 18 -27 30
-23 48 2 14 11 25 18 25 8 0 14 5 14 11 0 5 4 8 8 5 4 -2 14 -1 22 5 12 7 11
9 -5 9 -12 0 -26 -5 -33 -12 -7 -7 -13 -9 -13 -5 -5 25 -3 33 11 45 8 8 10 11
3 8 -14 -8 -27 10 -13 19 5 3 18 1 28 -4 11 -6 23 -7 27 -3 3 4 11 7 16 7 5 0
9 3 9 8 0 4 0 9 0 12 0 3 -9 1 -21 -5 -19 -10 -20 -10 -10 8 6 11 16 22 22 24
8 3 10 16 5 41 -5 27 -15 41 -35 52 -16 8 -32 11 -36 7 -5 -4 -5 1 -2 11 4 11
1 17 -8 17 -8 0 -15 -4 -15 -10 0 -20 -21 -9 -33 18 -6 15 -15 30 -20 33 -5 3
1 9 13 12 12 3 19 10 15 16 -3 6 0 9 8 5 8 -3 17 -1 21 4 9 14 -72 18 -86 4
-14 -14 -17 -71 -5 -85 7 -6 18 -20 25 -29 12 -14 10 -16 -9 -11 -26 7 -53 32
-62 58 -10 25 -21 11 -13 -17 10 -38 32 -59 68 -64 18 -3 38 -7 45 -9 6 -2 14
3 17 11 8 22 74 15 82 -8 8 -28 -5 -42 -24 -25 -19 15 -52 29 -52 21 0 -2 12
-9 26 -15 34 -12 23 -23 -24 -24 -26 0 -37 -4 -37 -15 0 -8 6 -14 14 -12 21 4
52 -8 46 -19 -4 -5 -11 -9 -16 -9 -6 0 -7 5 -4 10 3 6 -1 10 -9 10 -20 0 -20
-5 0 -35 16 -24 19 -62 10 -104 -7 -31 -5 -30 -50 -35 l-38 -5 7 37 c5 20 8
51 9 69 1 18 9 41 18 52 22 26 12 34 -21 17 -22 -12 -30 -12 -51 0 -14 8 -18
14 -10 13 33 -3 60 1 60 10 0 5 -15 7 -32 5 -64 -7 -98 -16 -92 -25 3 -5 0 -9
-5 -9 -6 0 -11 7 -11 16 0 9 -9 18 -20 21 -12 3 -32 30 -51 69 -44 88 -37 130
31 199 28 27 51 57 51 67 3 35 2 43 -4 58 -20 53 -24 91 -13 130 5 17 4 21 -2
11 -8 -11 -11 -11 -18 2 -8 13 -10 13 -23 0z m23 -19 c3 -8 2 -12 -4 -9 -6 3
-10 10 -10 16 0 14 7 11 14 -7z m-10 -44 c-6 -6 -10 -3 -10 10 0 13 4 16 10
10 7 -7 7 -13 0 -20z m96 -520 c8 -5 11 -12 7 -16 -4 -4 -15 0 -24 9 -18 18
-8 23 17 7z m60 -79 c-6 -12 -17 -21 -25 -21 -8 0 -18 -7 -23 -16 -7 -13 -10
-13 -21 -1 -28 34 -13 87 21 75 7 -3 22 -2 33 2 24 9 31 -10 15 -39z m-62
-519 c2 -12 -1 -22 -5 -22 -5 0 -10 -19 -12 -41 -1 -23 -2 -45 -3 -48 -3 -20
17 -73 33 -87 11 -9 19 -21 19 -25 0 -16 -41 -4 -62 18 -22 24 -50 114 -38
123 4 3 11 19 15 35 5 17 9 33 10 38 2 4 4 10 5 15 1 4 2 11 1 15 -1 5 6 7 16
5 10 -2 19 -13 21 -26z"/>
<path d="M1667 2639 c7 -7 15 -10 18 -7 3 3 -2 9 -12 12 -14 6 -15 5 -6 -5z"/>
<path d="M665 2629 c-10 -15 4 -79 16 -79 6 0 7 9 3 23 -4 12 -7 32 -6 45 2
24 -3 28 -13 11z"/>
<path d="M2350 2619 c0 -5 5 -7 10 -4 6 3 10 8 10 11 0 2 -4 4 -10 4 -5 0 -10
-5 -10 -11z"/>
<path d="M2615 2570 c2 -33 7 -66 12 -73 4 -6 8 -16 8 -22 2 -21 27 -62 47
-74 18 -11 20 -11 14 4 -3 9 -6 22 -6 27 0 6 -3 8 -7 5 -6 -7 -29 36 -40 73
-6 20 -11 59 -12 93 -1 15 -5 27 -10 27 -6 0 -8 -27 -6 -60z"/>
<path d="M1795 2590 c3 -5 8 -10 11 -10 2 0 4 5 4 10 0 6 -5 10 -11 10 -5 0
-7 -4 -4 -10z"/>
<path d="M2229 2583 c-13 -16 -12 -17 4 -4 9 7 17 15 17 17 0 8 -8 3 -21 -13z"/>
<path d="M1955 2580 c-3 -6 1 -7 9 -4 18 7 21 14 7 14 -6 0 -13 -4 -16 -10z"/>
<path d="M2178 2563 c6 -2 18 -2 25 0 6 3 1 5 -13 5 -14 0 -19 -2 -12 -5z"/>
<path d="M1125 2551 c-9 -15 -13 -71 -5 -71 13 0 20 30 7 31 -7 0 -3 4 8 9 11
5 15 9 8 9 -7 1 -10 8 -7 16 7 16 -1 21 -11 6z"/>
<path d="M1506 2541 c9 -9 74 -9 74 1 0 4 -18 7 -40 6 -22 -1 -37 -4 -34 -7z"/>
<path d="M2106 2528 c3 -4 9 -8 15 -8 5 0 9 4 9 8 0 5 -7 9 -15 9 -8 0 -12 -4
-9 -9z"/>
<path d="M1670 2515 c0 -7 30 -13 34 -7 3 4 -4 9 -15 9 -10 1 -19 0 -19 -2z"/>
<path d="M643 2465 c-6 -14 -7 -27 -3 -30 12 -8 34 35 23 46 -4 4 -13 -3 -20
-16z"/>
<path d="M1935 2470 c-3 -5 -1 -10 4 -10 6 0 11 5 11 10 0 6 -2 10 -4 10 -3 0
-8 -4 -11 -10z"/>
<path d="M705 2460 c-3 -5 -1 -10 4 -10 6 0 11 5 11 10 0 6 -2 10 -4 10 -3 0
-8 -4 -11 -10z"/>
<path d="M1846 2392 c1 -40 6 -78 11 -85 12 -16 11 -57 -2 -58 -5 0 -18 -8
-28 -17 -17 -15 -17 -15 -11 1 5 13 2 16 -12 10 -10 -4 -15 -2 -11 4 7 10 -23
40 -63 62 -22 12 -62 14 -145 9 -50 -2 -64 2 -58 18 5 14 -1 15 -41 10 -34 -5
-58 -16 -83 -39 -19 -18 -37 -31 -39 -30 -2 2 -19 -6 -38 -16 -26 -15 -37 -17
-47 -8 -10 10 -11 9 -2 -3 9 -11 7 -20 -7 -37 -10 -13 -24 -23 -32 -23 -10 0
-10 2 1 9 8 5 12 18 8 29 -2 12 -2 23 2 25 3 2 0 2 -6 1 -7 -2 -13 1 -13 7 0
6 -5 7 -11 3 -8 -5 -8 -9 1 -14 7 -4 9 -13 5 -20 -6 -9 -4 -11 4 -5 10 5 10 3
0 -13 -7 -11 -18 -18 -25 -15 -6 2 -15 -1 -19 -7 -4 -6 -1 -9 7 -8 7 2 12 -3
10 -9 -1 -7 5 -13 14 -13 13 0 14 -3 4 -15 -7 -8 -17 -12 -23 -8 -5 3 -7 1 -4
-4 9 -15 57 -13 57 2 0 8 6 16 13 18 9 4 9 8 -2 15 -11 8 -10 12 5 21 11 6 15
11 11 11 -15 0 21 30 36 30 8 0 31 11 51 25 55 37 113 65 120 58 9 -9 51 -14
133 -15 40 0 71 -3 68 -7 -2 -4 -18 -6 -34 -5 -17 1 -34 -2 -37 -8 -3 -5 5 -8
18 -7 38 3 58 0 58 -12 0 -5 -5 -7 -10 -4 -14 9 -180 9 -220 0 -25 -6 -29 -9
-19 -21 7 -9 16 -11 23 -5 21 17 187 5 243 -18 28 -11 79 -23 112 -25 56 -5
61 -4 81 21 26 34 17 104 -15 117 -8 3 -13 22 -12 55 0 28 -3 54 -6 58 -4 3 1
12 11 19 15 11 14 12 -9 11 -25 -2 -25 -3 -23 -75z m44 -147 c-6 -15 -13 -25
-16 -23 -2 3 1 17 7 32 16 34 23 27 9 -9z"/>
<path d="M1107 2441 c-4 -17 -3 -21 5 -13 5 5 8 16 6 23 -3 8 -7 3 -11 -10z"/>
<path d="M863 2438 c-4 -62 -12 -78 -64 -123 -30 -27 -59 -56 -66 -64 -17 -22
-16 -77 2 -95 8 -8 15 -19 15 -25 0 -6 7 -8 16 -4 14 5 13 9 -7 25 -15 13 -18
18 -7 14 12 -3 16 1 15 14 -1 15 -4 17 -16 7 -8 -7 -1 6 17 28 17 22 47 49 67
59 19 11 35 22 35 26 0 4 12 19 26 34 15 14 23 26 19 26 -4 0 -2 7 5 15 10 12
10 15 -4 15 -9 0 -16 -6 -16 -14 0 -9 -7 -12 -20 -9 -19 5 -29 23 -12 23 4 0
8 14 9 30 1 17 -1 30 -6 30 -4 0 -8 -6 -8 -12z m27 -87 c0 -13 -28 -22 -35
-11 -3 4 1 11 7 13 20 8 28 8 28 -2z"/>
<path d="M1186 2439 c3 -5 12 -9 21 -9 19 0 9 13 -12 16 -8 1 -13 -2 -9 -7z"/>
<path d="M1104 2398 c3 -10 -1 -33 -9 -52 -19 -44 -19 -62 -1 -69 11 -5 15 3
14 34 0 43 26 94 44 83 7 -4 8 -3 4 5 -6 9 -11 9 -23 0 -12 -10 -17 -10 -25 2
-8 11 -9 11 -4 -3z"/>
<path d="M2300 2369 c0 -5 -4 -8 -9 -5 -14 9 -121 -26 -121 -39 0 -21 26 -25
50 -8 29 21 115 12 177 -18 27 -13 51 -24 55 -24 4 0 13 -6 20 -12 6 -7 18
-13 25 -13 7 0 13 -7 13 -15 0 -8 -6 -15 -12 -15 -7 0 1 -9 17 -20 17 -11 26
-20 20 -20 -5 0 -2 -7 8 -14 13 -10 27 -11 55 -4 20 5 45 10 55 11 16 1 25 17
10 17 -5 0 -8 13 -9 28 -2 45 -14 83 -24 77 -5 -3 -12 5 -16 19 -6 25 -29 41
-39 27 -3 -5 3 -12 12 -15 14 -6 15 -9 4 -15 -7 -5 -10 -14 -7 -20 4 -6 12 -9
17 -6 5 4 4 -5 -2 -19 -7 -14 -18 -27 -26 -30 -8 -3 -12 -2 -9 2 9 14 -9 31
-38 36 -16 3 -32 9 -35 14 -9 12 -138 62 -161 62 -11 0 -20 5 -20 11 0 5 5 7
10 4 6 -3 10 -1 10 4 0 6 -7 11 -15 11 -8 0 -15 -5 -15 -11z m-90 -39 c0 -5
-5 -10 -11 -10 -5 0 -7 5 -4 10 3 6 8 10 11 10 2 0 4 -4 4 -10z m421 -87 c-7
-43 -31 -58 -31 -19 0 14 5 26 11 26 5 0 8 4 5 9 -4 5 0 12 6 14 7 3 13 6 14
6 0 1 -2 -16 -5 -36z m-56 -63 c3 -5 -1 -10 -9 -10 -9 0 -16 5 -16 10 0 6 4
10 9 10 6 0 13 -4 16 -10z"/>
<path d="M2346 2372 c17 -15 64 -32 64 -23 0 5 -14 14 -31 20 -38 13 -46 14
-33 3z"/>
<path d="M1380 2361 c0 -6 4 -13 10 -16 6 -3 7 1 4 9 -7 18 -14 21 -14 7z"/>
<path d="M2420 2338 c0 -4 7 -8 15 -8 8 0 15 4 15 8 0 5 -7 9 -15 9 -8 0 -15
-4 -15 -9z"/>
<path d="M1350 2328 c0 -5 -4 -7 -9 -3 -5 3 -12 1 -15 -4 -3 -5 -16 -7 -28 -3
-14 3 -19 2 -14 -6 5 -8 -2 -12 -19 -12 -15 0 -24 -4 -20 -10 9 -15 32 -12 62
7 15 10 36 16 48 15 13 -2 22 2 22 11 0 7 -6 14 -14 14 -7 0 -13 -4 -13 -9z"/>
<path d="M2464 2322 c4 -3 14 -7 22 -8 9 -1 13 0 10 4 -4 3 -14 7 -22 8 -9 1
-13 0 -10 -4z"/>
<path d="M1990 2300 c26 -48 21 -67 -21 -75 -38 -8 -35 -18 3 -13 26 3 39 0
43 -10 4 -11 16 -13 43 -9 20 3 31 3 24 0 -6 -2 -9 -9 -6 -14 3 -6 11 -5 20 2
8 6 14 8 14 3 0 -4 12 6 28 23 21 25 38 33 76 38 27 3 57 10 66 15 10 5 20 7
22 4 3 -2 16 -7 29 -9 13 -3 25 -9 27 -15 2 -5 9 -10 16 -10 6 0 28 -17 48
-38 26 -28 34 -43 27 -53 -14 -23 -10 -32 8 -18 9 8 14 9 10 3 -5 -8 9 -11 48
-9 65 2 83 -11 28 -20 -21 -4 -50 -8 -64 -11 -19 -4 -28 1 -39 21 -7 14 -19
25 -25 25 -7 0 -18 14 -25 30 -16 39 -32 46 -99 49 -29 2 -63 5 -75 7 -23 5
-76 -14 -76 -27 0 -4 -9 -11 -20 -14 -11 -3 -20 -12 -20 -20 0 -8 -9 -16 -19
-20 -30 -9 -35 -37 -11 -57 20 -16 23 -16 46 -2 13 9 24 12 24 6 0 -32 193
-41 224 -10 9 9 16 22 16 28 0 17 25 6 26 -11 1 -8 2 -20 3 -27 1 -10 5 -10
21 0 25 16 38 3 22 -22 -7 -11 -12 -22 -12 -26 0 -10 26 20 33 39 5 15 33 23
61 18 4 -1 14 4 22 10 8 6 14 8 14 3 1 -5 7 2 14 16 8 14 12 28 10 31 -2 4
-27 5 -55 2 -36 -3 -49 -2 -45 6 4 6 3 11 -3 11 -5 0 -13 9 -16 20 -3 11 -14
20 -22 20 -9 0 -14 3 -10 6 9 9 -48 64 -71 69 -12 2 -29 8 -39 13 -10 6 -48 9
-85 8 -37 -1 -65 1 -63 5 3 3 -6 12 -20 19 -21 11 -27 9 -56 -18 l-33 -31 -18
27 -18 27 2 -38 c1 -39 -11 -66 -13 -29 -1 12 -2 27 -3 33 0 6 -12 19 -25 28
-24 15 -24 15 -11 -9z m235 -130 c3 0 4 4 0 9 -8 15 76 11 106 -5 54 -27 42
-77 -23 -95 -79 -21 -127 -16 -163 17 l-27 25 22 24 c13 13 28 23 34 22 6 -1
10 4 8 11 -2 10 2 10 17 2 11 -5 22 -10 26 -10z m-107 -62 c-3 -7 -11 -13 -18
-13 -7 0 -15 6 -17 13 -3 7 4 12 17 12 13 0 20 -5 18 -12z"/>
<path d="M978 2256 c-28 -21 -21 -26 12 -10 17 9 30 17 30 20 0 9 -26 3 -42
-10z"/>
<path d="M1413 2223 c6 -10 -39 -54 -47 -46 -3 3 -8 -2 -12 -11 -3 -9 -10 -13
-15 -10 -5 3 -6 -2 -3 -10 4 -10 -2 -15 -22 -18 -15 -2 -29 -9 -32 -16 -2 -7
0 -12 5 -11 20 5 129 -15 136 -25 6 -7 7 -5 4 5 -3 9 4 21 14 28 11 6 18 15
15 19 -13 22 16 33 95 36 102 4 109 1 103 -31 -8 -41 -34 -73 -63 -75 -69 -4
-116 2 -141 17 -13 7 -13 6 -2 -7 22 -28 109 -38 195 -24 31 5 53 4 61 -3 9
-8 19 -4 35 13 13 14 21 30 19 37 -2 7 4 21 14 31 27 27 22 41 -8 21 -26 -17
-27 -17 -19 6 l7 23 -21 -21 c-26 -26 -44 -27 -36 -2 4 14 0 23 -15 31 -11 6
-20 7 -20 3 0 -4 -4 -2 -9 6 -11 18 -41 24 -35 8 3 -8 -13 -13 -48 -14 -36 -1
-47 2 -37 9 10 7 3 8 -24 4 -23 -3 -52 -17 -74 -36 -19 -17 -38 -29 -41 -26
-7 8 19 59 35 69 18 11 16 27 -3 27 -8 0 -13 -3 -11 -7z m34 -88 c0 -8 -4 -12
-9 -9 -5 3 -6 10 -3 15 9 13 12 11 12 -6z m283 -35 c0 -10 -26 -20 -33 -13 -3
3 -3 11 0 18 5 14 33 9 33 -5z"/>
<path d="M1088 2203 c7 -3 16 -2 19 1 4 3 -2 6 -13 5 -11 0 -14 -3 -6 -6z"/>
<path d="M1090 2181 c0 -5 7 -15 16 -22 20 -17 58 -23 49 -8 -4 6 -14 8 -22 5
-9 -4 -17 1 -20 14 -5 20 -23 28 -23 11z"/>
<path d="M1705 2181 c-10 -17 12 -21 25 -6 10 12 10 15 -3 15 -9 0 -18 -4 -22
-9z"/>
<path d="M1961 2179 c7 -4 16 -6 20 -4 11 7 25 -39 23 -75 -4 -68 -5 -165 -2
-184 2 -14 -5 -22 -22 -26 -26 -7 -24 -9 25 -25 34 -10 -3 -92 -49 -108 -11
-5 -16 -13 -12 -22 3 -8 3 -15 0 -15 -14 0 -51 26 -71 49 -29 33 -30 19 -2
-26 15 -23 17 -33 8 -31 -10 2 -14 -7 -14 -27 1 -22 5 -30 18 -29 9 1 17 -3
17 -8 0 -6 -9 -8 -20 -5 -12 3 -20 0 -20 -8 0 -7 -11 -20 -25 -29 -22 -14 -25
-15 -25 -1 0 8 -5 15 -12 15 -6 0 -9 -3 -5 -6 7 -8 -17 -34 -32 -34 -6 0 -11
-4 -11 -8 0 -7 -63 -42 -75 -42 -15 0 -1 21 25 37 17 9 30 21 30 25 0 4 -15
-1 -32 -12 -18 -11 -38 -20 -43 -20 -15 0 -12 55 4 74 17 21 11 28 -10 13 -17
-13 -54 -77 -44 -77 3 0 1 -9 -5 -20 -6 -11 -7 -26 -3 -33 4 -6 8 -18 9 -25 2
-8 5 -17 8 -20 4 -3 4 11 1 31 -8 50 0 47 19 -8 14 -41 14 -45 -1 -43 -14 3
-21 -15 -25 -69 -3 -32 -58 -19 -58 13 0 8 -5 14 -11 14 -5 0 -7 5 -4 10 3 6
0 10 -8 10 -22 0 -14 101 11 147 16 29 15 36 -5 25 -17 -10 -18 -13 -28 -102
-4 -30 -11 -60 -17 -67 -15 -19 0 -68 30 -94 15 -13 45 -36 68 -50 28 -19 43
-38 51 -64 15 -46 9 -60 -28 -76 -33 -13 -29 -24 13 -34 24 -6 29 -3 39 21 12
34 6 103 -11 114 -6 4 -12 11 -13 16 -1 5 -5 8 -9 7 -4 -2 -5 4 -2 11 3 9 -3
17 -17 21 l-23 8 27 23 c25 21 38 42 19 30 -5 -3 -8 8 -8 25 0 16 4 29 9 29 5
0 7 -7 4 -15 -4 -8 -1 -17 6 -21 7 -4 9 -4 5 1 -4 4 -3 14 2 20 6 7 12 25 14
41 6 49 16 65 31 51 7 -7 11 -15 10 -18 -2 -3 24 -5 58 -4 39 0 73 -5 92 -15
32 -17 47 -18 107 -6 55 12 67 4 59 -36 -7 -32 -8 -33 -51 -31 -144 7 -150 7
-125 -11 11 -7 52 -17 91 -21 66 -6 73 -5 95 17 13 12 26 34 27 48 2 14 8 29
12 34 13 14 39 -1 37 -22 -1 -24 23 -82 35 -82 5 0 6 5 2 11 -14 22 -15 81 -3
111 17 41 16 126 -2 141 -8 7 -11 8 -7 3 3 -4 4 -15 1 -22 -3 -8 0 -21 7 -29
9 -11 9 -15 1 -15 -7 0 -10 -4 -7 -8 3 -5 -1 -9 -9 -9 -8 0 -12 4 -9 9 3 4 0
8 -5 8 -6 0 -11 5 -11 11 0 18 -32 38 -60 39 -18 0 -21 -3 -11 -9 9 -6 10 -11
2 -15 -18 -11 -54 33 -48 60 3 16 0 23 -7 21 -6 -2 -10 -16 -10 -30 3 -62 4
-70 9 -65 9 9 79 -19 84 -33 2 -8 -2 -10 -15 -4 -29 12 -67 13 -86 1 -22 -13
-24 -36 -3 -36 8 0 15 5 15 11 0 13 42 8 47 -6 2 -6 -5 -11 -14 -12 -10 -1
-30 -4 -46 -7 -19 -5 -26 -3 -25 6 2 7 -5 12 -14 12 -10 -1 -18 1 -18 5 0 4
-9 17 -20 28 -16 18 -25 20 -50 13 -16 -5 -37 -16 -46 -24 -8 -9 -21 -16 -27
-16 -23 0 -57 12 -57 20 0 11 88 44 112 43 10 -1 18 2 18 7 0 5 9 12 20 15 11
4 17 11 14 17 -4 7 -2 8 5 4 9 -6 9 -11 -1 -23 -11 -14 -8 -14 20 1 19 10 32
12 32 6 0 -6 5 -8 10 -5 6 3 10 1 10 -5 0 -6 5 -8 11 -5 6 5 5 11 -6 18 -8 7
-18 25 -20 40 -4 21 1 33 22 53 63 58 58 55 76 34 15 -18 52 -27 82 -20 6 1
20 3 33 4 12 2 25 6 30 11 4 4 1 5 -7 0 -12 -7 -13 -2 -6 26 4 19 10 52 14 74
4 23 11 46 15 53 5 8 2 10 -8 6 -9 -3 -13 -10 -10 -15 3 -5 0 -9 -5 -9 -6 0
-11 5 -11 10 0 6 -5 10 -12 10 -9 0 -9 -3 0 -12 7 -7 12 -29 12 -49 0 -28 -6
-43 -26 -58 -24 -19 -54 -19 -54 0 0 5 -6 9 -13 9 -19 0 -17 90 3 92 8 0 20 2
27 2 28 3 23 16 -6 16 -26 0 -32 3 -27 16 3 8 2 13 -3 10 -15 -9 -29 102 -20
146 12 51 -1 128 -22 128 -6 0 -8 4 -4 9 3 5 -8 9 -25 9 -20 -1 -26 -4 -19 -9z
m73 -305 c5 -14 4 -15 -9 -4 -17 14 -19 20 -6 20 5 0 12 -7 15 -16z m-160
-376 c35 -23 47 -40 24 -35 -7 1 -18 8 -24 16 -6 7 -23 14 -37 14 -26 0 -34 7
-20 20 10 11 19 8 57 -15z m-229 -66 c-3 -3 -11 0 -18 7 -9 10 -8 11 6 5 10
-3 15 -9 12 -12z m-141 -28 c3 -8 2 -12 -4 -9 -6 3 -10 10 -10 16 0 14 7 11
14 -7z m40 -32 c2 -4 -4 -9 -15 -9 -10 -1 -19 2 -19 8 0 11 27 12 34 1z m26
-32 c0 -5 -4 -10 -10 -10 -5 0 -10 5 -10 10 0 6 5 10 10 10 6 0 10 -4 10 -10z
m77 -203 c0 -8 -6 -14 -14 -14 -9 0 -10 4 -2 14 6 7 12 13 14 13 1 0 2 -6 2
-13z"/>
<path d="M1863 2133 c-18 -41 -18 -49 -5 -138 7 -50 5 -64 -10 -86 -17 -25
-17 -27 0 -40 9 -7 14 -10 10 -5 -3 4 8 21 24 37 17 16 26 29 21 29 -6 0 -14
17 -18 38 -4 20 -9 48 -12 62 -3 14 -5 34 -3 45 1 11 2 28 3 38 1 9 5 17 9 17
4 0 6 9 5 20 -2 28 -6 25 -24 -17z"/>
<path d="M2370 2049 c-14 -10 -44 -21 -68 -23 -69 -6 -62 -16 10 -14 65 3 104
22 90 45 -5 7 -15 4 -32 -8z"/>
<path d="M2742 2054 c-7 -8 -8 -14 -3 -14 10 0 25 19 20 25 -2 1 -10 -3 -17
-11z"/>
<path d="M2409 2034 c-22 -25 -22 -26 -3 -16 12 6 24 18 28 27 8 21 3 19 -25
-11z"/>
<path d="M1653 2033 c-13 -2 -23 -8 -23 -13 0 -10 -134 -6 -162 5 -12 5 -18 2
-18 -6 0 -7 3 -10 6 -6 3 3 24 -1 47 -9 48 -17 110 -13 160 11 52 24 49 29
-10 18z"/>
<path d="M1727 2016 c-4 -10 -1 -13 9 -9 15 6 19 23 5 23 -5 0 -11 -7 -14 -14z"/>
<path d="M1234 2008 c-3 -4 4 -8 15 -8 12 0 21 4 21 8 0 5 -7 9 -15 9 -9 0
-18 -4 -21 -9z"/>
<path d="M1270 1986 c0 -2 7 -7 16 -10 8 -3 12 -2 9 4 -6 10 -25 14 -25 6z"/>
<path d="M1320 1976 c0 -2 9 -6 20 -9 11 -3 20 -1 20 4 0 5 -9 9 -20 9 -11 0
-20 -2 -20 -4z"/>
<path d="M1680 1970 c-12 -7 -10 -9 7 -7 12 0 19 5 17 9 -6 10 -6 10 -24 -2z"/>
<path d="M2174 1969 c1 -7 13 -14 27 -16 18 -2 20 -1 9 6 -8 5 -17 8 -21 5 -4
-2 -10 1 -12 6 -3 6 -4 5 -3 -1z"/>
<path d="M2389 1976 c-4 -4 -74 -15 -101 -16 -10 0 -18 -4 -18 -8 0 -11 101 1
125 16 11 6 15 12 9 12 -6 0 -13 -2 -15 -4z"/>
<path d="M2238 1953 c7 -3 16 -2 19 1 4 3 -2 6 -13 5 -11 0 -14 -3 -6 -6z"/>
<path d="M1363 1938 c2 -7 9 -12 15 -11 6 2 13 -6 17 -16 7 -22 32 -35 41 -20
4 6 10 6 19 -1 15 -12 55 -5 55 10 0 5 -9 7 -20 5 -11 -2 -22 0 -25 6 -4 5
-13 6 -24 0 -10 -6 -23 -6 -32 0 -7 5 -10 9 -5 9 12 0 -25 29 -37 30 -5 0 -7
-6 -4 -12z"/>
<path d="M2373 1937 c-47 -12 -60 -29 -15 -21 15 3 34 6 43 7 8 0 21 7 28 14
14 15 8 15 -56 0z"/>
<path d="M1026 1922 c-2 -4 4 -9 15 -9 11 -1 17 2 14 8 -7 11 -22 12 -29 1z"/>
<path d="M1746 1911 c-4 -5 3 -7 14 -4 23 6 26 13 6 13 -8 0 -17 -4 -20 -9z"/>
<path d="M2070 1899 c0 -4 11 -6 25 -6 13 0 22 3 20 8 -6 9 -45 8 -45 -2z"/>
<path d="M1784 1892 c4 -3 14 -7 22 -8 9 -1 13 0 10 4 -4 3 -14 7 -22 8 -9 1
-13 0 -10 -4z"/>
<path d="M1695 1870 c-3 -5 -4 -14 -1 -19 3 -5 0 -11 -7 -14 -8 -3 -19 4 -25
14 -7 10 -17 19 -22 19 -6 0 -2 -10 10 -22 21 -22 26 -63 11 -86 -4 -7 -26
-20 -47 -27 -21 -8 -31 -14 -21 -15 18 0 25 -20 7 -20 -6 0 -23 -12 -38 -26
l-27 -25 50 26 c28 15 54 31 60 36 5 5 18 9 29 9 19 0 19 1 2 13 -17 13 -18
14 -2 20 10 4 14 11 11 17 -3 5 2 10 12 10 15 0 16 2 3 10 -8 5 -11 10 -6 10
5 0 2 8 -5 17 -10 11 -10 14 -1 9 6 -4 12 -4 13 1 0 4 2 18 3 31 3 24 0 27 -9
12z m-52 -145 c-3 -9 -8 -14 -10 -11 -3 3 -2 9 2 15 9 16 15 13 8 -4z"/>
<path d="M2520 1840 c0 -5 5 -10 11 -10 5 0 7 5 4 10 -3 6 -8 10 -11 10 -2 0
-4 -4 -4 -10z"/>
<path d="M2632 1818 c-8 -65 -8 -127 0 -143 6 -11 31 -38 55 -61 24 -22 41
-43 38 -46 -3 -3 -1 -16 4 -29 9 -22 10 -22 8 8 -1 21 -14 45 -35 67 -17 19
-32 39 -32 45 0 6 -5 11 -11 11 -5 0 -7 5 -4 10 3 6 2 10 -3 10 -6 0 -9 31 -8
70 1 39 -1 70 -4 70 -4 0 -7 -6 -8 -12z"/>
<path d="M1769 1767 c-22 -15 -30 -17 -48 -8 -25 14 -28 0 -5 -24 12 -11 31
-15 68 -13 49 3 51 4 51 33 0 37 -27 42 -66 12z"/>
<path d="M905 1730 c14 -22 25 -43 25 -48 0 -11 61 -32 94 -32 15 0 25 4 22 9
-3 5 1 12 9 15 11 4 15 0 13 -11 -2 -10 3 -18 10 -19 6 -1 16 -2 21 -3 4 0 20
-12 35 -26 29 -27 48 -77 41 -110 -2 -11 -4 -25 -4 -31 -2 -30 -118 -114 -157
-114 -26 0 -37 -59 -15 -76 18 -14 -1 -28 -29 -19 -25 8 -33 36 -25 85 4 22 5
42 3 45 -1 3 11 15 29 26 20 13 36 34 44 57 16 51 24 57 47 34 13 -13 18 -29
16 -48 l-4 -29 10 30 c13 39 3 74 -24 80 -11 2 -41 3 -66 1 -25 -2 -51 1 -57
7 -9 6 -13 6 -13 -2 0 -6 11 -16 25 -21 14 -5 25 -15 26 -22 0 -7 2 -24 3 -36
2 -13 -3 -26 -11 -29 -7 -3 -10 -9 -7 -14 3 -5 0 -9 -6 -9 -37 0 -47 -142 -13
-168 10 -7 17 -18 15 -23 -3 -11 -2 -11 36 2 33 11 49 36 32 53 -5 5 -10 19
-10 30 0 10 3 16 7 13 3 -4 12 1 19 11 7 9 14 13 15 7 0 -5 2 -21 3 -35 2 -14
-3 -39 -10 -56 -14 -34 -8 -73 19 -115 16 -26 18 -122 3 -136 -5 -5 -6 -2 -1
6 6 10 4 12 -5 6 -10 -6 -9 -11 5 -22 11 -7 13 -13 6 -13 -7 0 -10 -4 -7 -9 3
-5 -1 -15 -10 -22 -14 -11 -18 -10 -30 5 -8 11 -11 30 -7 47 8 44 -5 35 -17
-11 -10 -36 -30 -56 -30 -30 0 6 -4 10 -10 10 -6 0 -6 -9 0 -24 8 -21 6 -25
-13 -29 -19 -4 -19 -4 4 -6 14 0 41 -6 58 -12 35 -12 34 -9 18 -104 -2 -11
-19 -30 -37 -43 -32 -21 -32 -22 -8 -22 35 0 61 33 64 83 1 23 3 44 3 47 1 3
12 -12 24 -33 13 -22 28 -40 33 -40 5 -1 9 -14 9 -29 0 -16 3 -28 6 -28 4 0 7
-6 6 -12 -1 -33 6 -44 37 -60 19 -9 46 -15 61 -14 23 3 26 0 22 -20 -2 -13 -1
-22 3 -19 3 2 13 -5 20 -16 8 -10 25 -19 38 -19 18 0 22 3 15 13 -15 19 -9 42
10 41 9 -1 17 2 17 8 0 5 5 6 10 3 6 -3 10 -3 10 2 0 9 127 10 136 1 3 -4 18
-2 34 3 21 8 28 17 28 36 0 15 6 32 15 38 14 10 14 12 -1 23 -9 7 -11 10 -3 6
10 -5 12 -3 6 5 -4 7 -28 21 -53 32 -25 11 -51 27 -58 37 -17 22 -11 82 11
118 l18 29 -27 -30 c-22 -25 -25 -26 -16 -7 7 13 9 35 6 48 -11 41 -96 66 -96
28 0 -11 4 -12 19 -5 13 7 23 6 36 -3 18 -13 18 -25 0 -112 -6 -26 -1 -37 30
-70 30 -32 35 -44 31 -71 -6 -41 -33 -70 -72 -77 -17 -3 -48 -13 -70 -22 -35
-15 -37 -15 -25 0 7 9 10 16 5 16 -5 0 3 10 17 23 37 32 47 67 20 74 -12 3
-21 10 -21 15 0 5 5 6 11 2 7 -4 7 1 -1 16 -6 12 -9 24 -7 27 3 2 -1 19 -8 36
-11 27 -11 39 0 70 17 48 21 53 39 38 10 -8 13 -27 11 -62 -4 -53 9 -67 18
-19 6 30 -9 90 -23 90 -4 0 -15 20 -25 45 -9 25 -25 50 -35 55 -18 9 -18 8 -4
-17 7 -16 14 -40 14 -54 0 -33 -25 -84 -35 -70 -3 6 -3 15 0 21 12 20 14 53 4
69 -10 14 -10 14 -5 -1 2 -9 -1 -38 -8 -65 -13 -48 -5 -103 15 -103 16 0 10
-28 -7 -34 -13 -5 -14 -9 -4 -21 7 -8 18 -15 25 -15 29 0 19 -27 -23 -67 -45
-43 -62 -52 -62 -33 0 6 5 10 10 10 14 0 13 37 -2 46 -6 4 -9 3 -5 -2 8 -14
-18 -44 -43 -49 -22 -4 -22 -4 -4 16 24 27 9 69 -33 90 -57 28 -83 66 -77 114
5 47 13 80 21 82 5 2 7 30 6 64 -2 43 -10 76 -29 114 -23 44 -26 58 -17 77
l11 23 10 -26 c10 -25 69 -62 84 -53 4 3 8 0 8 -6 0 -6 4 -9 9 -5 6 3 8 -11 6
-34 -3 -35 -1 -38 17 -33 18 4 19 2 14 -34 -4 -21 -9 -50 -11 -64 -2 -13 0
-31 5 -40 11 -17 10 -18 15 35 2 22 5 59 8 83 4 31 1 42 -9 42 -7 0 -16 11
-20 24 -3 14 -21 35 -40 48 -58 39 -85 145 -44 170 11 7 20 16 20 20 0 4 12
24 26 45 14 21 23 45 21 55 -3 10 -1 21 4 24 5 3 6 11 2 17 -4 6 -7 23 -7 37
0 26 -17 50 -35 50 -6 0 -14 12 -17 26 -5 19 -9 22 -15 12 -7 -10 -9 -11 -9 0
0 9 -7 11 -20 7 -12 -4 -20 -2 -20 5 0 6 5 8 10 5 6 -3 10 -2 10 3 0 5 -9 12
-20 15 -11 3 -20 1 -20 -3 0 -5 -8 -7 -17 -5 -10 1 -27 -1 -38 -5 -21 -8 -91
31 -78 43 3 4 1 7 -5 7 -7 0 -12 6 -12 14 0 8 -7 16 -15 20 -10 3 -7 -7 10
-34z m280 -979 c-2 -9 -4 -20 -4 -24 -2 -18 -36 0 -37 19 -1 14 5 20 21 20 15
0 22 -5 20 -15z m371 -13 c16 -46 -8 -78 -55 -78 -14 0 -21 4 -15 8 14 10 30
47 33 77 2 23 29 18 37 -7z m-199 -13 c-1 -14 -7 -29 -13 -33 -19 -12 -44 -70
-38 -86 5 -12 2 -15 -10 -10 -9 3 -16 11 -17 18 0 6 -3 22 -5 35 -2 14 -2 22
2 19 7 -7 44 28 44 42 0 5 7 6 17 3 11 -4 14 -3 9 5 -4 7 -4 17 -1 22 10 16
14 12 12 -15z"/>
<path d="M960 1766 c0 -3 9 -10 20 -16 11 -6 20 -8 20 -6 0 3 -9 10 -20 16
-11 6 -20 8 -20 6z"/>
<path d="M1109 1765 c-5 -4 -65 -17 -86 -18 -7 0 -10 -4 -7 -9 3 -5 9 -6 14
-3 5 3 26 8 47 11 33 4 43 1 66 -22 21 -20 24 -30 17 -44 -12 -23 -13 -30 -1
-30 18 0 21 50 5 75 -17 26 -48 48 -55 40z"/>
<path d="M859 1688 c-6 -18 -13 -36 -14 -40 -1 -5 -4 -10 -5 -13 -15 -30 7
-93 46 -132 19 -19 32 -38 29 -44 -4 -5 -1 -9 4 -9 18 0 12 18 -16 52 -40 47
-53 74 -53 105 0 47 14 58 39 32 11 -12 21 -26 21 -31 0 -4 25 -8 55 -8 30 0
55 4 55 8 0 5 -21 8 -46 8 -39 -1 -51 4 -75 28 -16 16 -25 34 -21 40 10 17 11
36 2 36 -4 0 -14 -15 -21 -32z"/>
<path d="M1025 1711 c-11 -5 -30 -7 -43 -4 -15 2 -21 0 -17 -7 8 -14 34 -12
70 5 32 14 24 19 -10 6z"/>
<path d="M2226 1708 c3 -4 9 -8 15 -8 5 0 9 4 9 8 0 5 -7 9 -15 9 -8 0 -12 -4
-9 -9z"/>
<path d="M2445 1700 c-3 -5 -1 -10 4 -10 6 0 11 5 11 10 0 6 -2 10 -4 10 -3 0
-8 -4 -11 -10z"/>
<path d="M2196 1692 c-2 -4 9 -15 25 -24 35 -21 37 -18 4 10 -13 12 -26 18
-29 14z"/>
<path d="M1206 1654 c-10 -14 -15 -31 -13 -37 2 -7 11 3 21 21 9 18 21 30 26
27 6 -4 10 -1 10 4 0 20 -28 11 -44 -15z"/>
<path d="M2559 1655 c-5 -9 -4 -31 1 -37 1 -2 3 -11 5 -20 2 -10 10 -25 19
-34 27 -27 38 -54 35 -92 -3 -39 -25 -82 -42 -82 -5 0 -21 -12 -34 -26 -23
-25 -23 -26 -4 -21 12 3 19 1 16 -3 -3 -5 1 -11 7 -13 10 -4 10 -7 0 -15 -8
-5 -10 -16 -6 -28 4 -10 3 -16 -1 -11 -5 4 -9 17 -10 29 -1 12 -7 24 -13 26
-7 2 -7 -7 0 -33 10 -31 9 -37 -8 -50 -39 -30 -82 -7 -68 37 7 23 6 23 -14 4
-12 -10 -19 -23 -16 -27 3 -5 -2 -6 -10 -3 -8 3 -23 -3 -32 -15 -10 -11 -40
-25 -70 -31 -32 -7 -59 -20 -72 -35 -12 -14 -19 -25 -14 -25 4 0 1 -4 -7 -9
-9 -6 -15 -29 -16 -65 -1 -31 -5 -59 -8 -62 -4 -4 -4 4 -2 17 4 23 4 24 -11 4
-12 -15 -14 -37 -10 -91 3 -50 1 -77 -8 -89 -13 -17 -42 -12 -31 5 3 5 1 19
-4 33 -7 18 -6 30 5 46 13 19 13 20 -1 15 -9 -4 -19 -20 -22 -35 -6 -29 -23
-51 -23 -29 0 6 -4 9 -8 6 -5 -3 -8 3 -7 12 3 36 17 61 36 67 10 4 19 11 19
16 0 13 -12 11 -38 -7 -53 -37 -51 -89 4 -119 19 -10 34 -22 34 -27 0 -4 9 -8
20 -8 11 0 20 5 20 11 0 5 5 7 10 4 11 -7 12 -5 14 51 3 73 71 154 128 154 10
0 38 9 63 21 33 16 49 31 62 60 9 21 21 39 25 39 14 0 6 -101 -9 -115 -20 -21
8 -25 30 -5 13 13 15 23 9 41 -5 13 -8 34 -7 47 1 13 -2 25 -6 27 -10 7 1 45
13 45 5 0 16 7 24 15 21 21 33 19 44 -7 5 -13 29 -45 54 -72 27 -30 48 -64 52
-83 8 -44 -12 -92 -42 -99 -13 -3 -24 -10 -24 -15 0 -5 -4 -9 -10 -9 -5 0 -10
6 -10 13 0 6 -14 28 -30 47 -35 41 -40 32 -8 -13 27 -38 30 -112 5 -147 -17
-24 -17 -24 -11 31 6 58 -7 101 -40 128 -9 7 -13 18 -9 24 3 6 1 7 -5 3 -12
-7 -5 -36 8 -36 4 0 15 -19 24 -41 19 -47 10 -93 -24 -124 -17 -15 -22 -16
-37 -4 -15 12 -16 12 -8 -1 5 -8 8 -27 6 -42 -1 -14 3 -29 9 -33 18 -11 1
-102 -26 -143 -14 -20 -45 -47 -70 -60 -47 -24 -52 -31 -56 -72 -6 -50 -62
-67 -97 -29 -19 20 -19 22 -2 72 10 29 16 57 14 64 -2 6 1 14 6 18 16 10 13
28 -4 22 -10 -5 -16 4 -21 28 -3 19 -11 35 -18 35 -6 0 -6 4 3 9 9 6 10 11 3
15 -18 11 -2 34 29 41 16 4 33 14 39 23 8 15 9 15 10 1 0 -9 -7 -22 -15 -29
-8 -7 -15 -17 -15 -23 0 -6 9 -2 21 10 16 15 22 36 24 79 7 119 30 142 32 32
2 -94 -10 -130 -53 -164 -32 -26 -43 -44 -26 -44 4 0 20 11 36 25 16 14 32 25
36 25 16 0 30 59 33 136 2 44 7 86 11 92 11 18 36 15 30 -3 -4 -8 0 -32 8 -53
13 -34 15 -61 10 -133 -2 -32 -56 -94 -73 -83 -7 4 -9 3 -5 -4 3 -6 -3 -17
-15 -25 -21 -16 -27 -32 -28 -83 -1 -25 -6 -33 -26 -38 -26 -7 -25 -36 1 -32
14 2 51 46 39 46 -4 0 3 13 15 30 13 18 16 28 8 25 -9 -4 -14 2 -15 16 -2 16
1 18 12 9 18 -15 47 -6 71 23 19 22 19 22 -1 6 -26 -22 -62 -32 -69 -21 -3 6
4 12 15 15 13 4 18 10 13 18 -4 8 -3 10 4 5 20 -12 72 58 64 87 -1 4 4 15 12
23 11 10 12 22 6 44 -5 17 -9 33 -9 35 -1 3 -1 6 -2 8 0 1 -2 25 -5 52 -2 33
-1 43 5 30 5 -11 7 -23 4 -27 -2 -5 0 -8 4 -8 5 0 9 19 9 43 0 23 4 59 8 80
10 45 -3 48 -27 7 -10 -16 -26 -30 -36 -30 -10 0 -30 -9 -43 -20 -14 -10 -29
-16 -33 -12 -5 4 -5 2 -2 -4 4 -7 -6 -26 -22 -43 -16 -17 -27 -31 -23 -31 3 0
-3 -9 -13 -20 -10 -11 -15 -20 -11 -20 18 0 -22 -27 -55 -36 -28 -9 -42 -8
-60 2 -31 17 -56 17 -62 0 -6 -14 -63 -26 -136 -29 -50 -2 -66 16 -29 34 13 5
28 20 33 32 6 12 25 31 42 43 28 19 31 24 18 34 -17 14 -20 30 -4 30 5 0 8 -4
4 -9 -3 -5 -1 -12 5 -16 6 -4 10 8 10 29 0 25 8 42 28 61 l27 26 -32 -18 c-18
-10 -34 -26 -37 -35 -3 -13 -10 -16 -22 -11 -11 4 -15 3 -11 -4 4 -6 0 -16 -8
-23 -14 -11 -14 -10 -7 11 10 26 6 49 -9 49 -5 0 -7 -12 -3 -27 4 -22 3 -25
-5 -13 -6 8 -11 11 -11 7 0 -5 -7 -1 -17 8 -15 16 -15 19 0 45 9 15 18 51 21
80 2 29 9 56 17 60 17 11 -3 81 -28 101 -17 13 -17 12 -2 -11 26 -41 29 -67 9
-85 -13 -12 -26 -14 -42 -9 -13 4 -27 7 -32 6 -4 -2 -5 13 -2 33 4 22 3 35 -4
35 -5 0 -10 -7 -10 -15 0 -9 -9 -15 -22 -15 -21 0 -36 13 -74 65 -11 16 -13
16 -8 3 9 -25 -22 -23 -36 2 -13 24 -27 26 -27 5 0 -8 7 -15 14 -15 8 0 12 -4
9 -9 -8 -13 19 -32 37 -26 8 4 22 -4 34 -18 10 -13 39 -33 63 -44 50 -22 64
-35 79 -75 8 -21 7 -31 -5 -43 -8 -8 -13 -19 -9 -24 3 -5 0 -13 -6 -17 -8 -5
-9 -3 -4 6 6 10 3 12 -13 8 -25 -7 -64 26 -56 47 4 8 17 15 31 15 13 0 21 -4
18 -10 -3 -5 -1 -10 4 -10 18 0 12 29 -6 38 -10 5 -37 12 -61 15 -24 3 -53 14
-64 24 -12 10 -18 12 -13 4 4 -8 2 -17 -6 -22 -7 -4 -11 -11 -7 -14 6 -7 51
-16 79 -16 14 0 15 -5 6 -29 -9 -24 -14 -27 -26 -17 -12 10 -13 9 -3 -9 6 -12
9 -24 6 -27 -8 -7 55 -27 87 -27 40 0 74 -38 77 -86 2 -27 -2 -45 -12 -53 -9
-7 -14 -17 -11 -21 3 -4 -7 -11 -21 -14 -19 -5 -31 -2 -44 14 -9 11 -22 20
-28 20 -28 0 -105 43 -138 77 -34 34 -36 35 -19 8 22 -36 40 -51 114 -91 31
-17 56 -37 56 -45 0 -8 15 -29 33 -47 17 -19 33 -39 33 -45 8 -82 -15 -131
-68 -144 -64 -16 -101 13 -82 65 6 15 17 22 34 22 20 0 25 -5 25 -25 0 -15 5
-24 12 -22 22 4 34 27 37 68 1 29 -2 39 -14 39 -8 0 -15 4 -15 9 0 5 -13 11
-28 14 -19 4 -33 17 -45 43 -20 42 -76 104 -93 104 -6 0 -17 7 -24 14 -13 17
-21 84 -10 91 9 5 6 69 -5 107 -4 16 -11 26 -15 23 -5 -3 -10 -2 -13 2 -2 5
-2 1 1 -7 11 -38 14 -108 3 -114 -12 -8 -15 -64 -5 -91 4 -8 27 -30 51 -46 25
-18 49 -44 55 -60 5 -16 14 -27 18 -24 5 3 12 0 16 -6 4 -8 3 -9 -4 -5 -8 5
-12 0 -12 -13 0 -12 6 -21 13 -21 8 0 9 -3 1 -8 -9 -6 -26 -53 -26 -72 0 -3
-15 -19 -34 -37 -24 -21 -47 -33 -72 -35 -30 -2 -33 -4 -15 -10 25 -7 127 38
118 52 -3 4 2 11 11 14 8 3 13 10 9 15 -3 5 -1 12 5 16 6 4 8 10 5 15 -5 9 56
2 65 -7 3 -3 -8 -3 -23 -1 -24 5 -30 1 -41 -27 -8 -18 -22 -38 -33 -44 -10 -6
-14 -11 -8 -11 5 0 -1 -7 -14 -17 -32 -22 -110 -22 -122 0 -5 9 -16 14 -23 11
-8 -3 -17 -1 -21 5 -9 15 -31 14 -71 -5 -40 -19 -41 -52 -3 -71 19 -10 21 -13
7 -18 -9 -4 -27 -1 -40 6 -13 7 -26 13 -30 14 -4 0 -16 10 -28 22 -11 13 -23
23 -25 23 -11 0 -4 -30 11 -44 8 -9 12 -16 8 -16 -3 0 -2 -6 5 -13 8 -10 7
-17 -2 -27 -10 -12 -9 -12 5 -1 10 7 23 9 30 5 13 -8 32 -14 53 -16 6 -1 10
-16 9 -34 -2 -37 40 -114 62 -114 9 0 38 -23 65 -51 28 -29 60 -53 72 -54 12
-2 27 -4 32 -6 6 -2 24 5 42 14 33 18 41 14 48 -24 3 -12 7 -24 11 -28 4 -3 4
2 1 12 -7 18 8 24 18 7 3 -5 24 -10 46 -10 36 0 45 -7 40 -33 -1 -5 3 -6 8 -3
5 4 12 2 16 -4 3 -5 15 -10 26 -10 10 0 19 -4 19 -10 0 -6 9 -6 24 0 27 10 66
9 66 -1 0 -10 75 -3 98 10 12 6 34 11 49 11 31 0 85 35 92 60 2 8 5 35 5 58 1
37 5 46 28 58 37 19 62 90 54 148 -9 55 5 84 45 98 16 5 29 16 29 24 0 8 7 17
15 20 8 3 17 16 21 27 4 12 14 27 22 33 11 8 16 32 17 89 1 73 3 79 25 87 42
15 82 17 76 3 -3 -9 2 -11 15 -8 16 5 17 8 7 21 -10 12 -10 14 0 8 7 -4 12 -2
12 5 0 7 12 9 38 5 l37 -6 -50 26 c-60 32 -56 28 -59 51 -2 12 6 21 27 29 44
15 72 56 76 110 1 5 13 25 29 43 15 19 28 37 28 42 1 5 2 14 3 20 0 5 7 7 14
3 10 -6 10 -4 0 7 -7 7 -13 20 -13 29 0 9 -13 37 -30 63 -16 26 -30 54 -30 61
0 14 55 67 62 60 3 -2 10 8 17 23 l13 28 -24 -20 c-12 -11 -25 -22 -28 -25 -3
-3 -17 -13 -32 -23 -18 -11 -26 -23 -23 -37 2 -11 0 -20 -5 -20 -21 0 -40 62
-45 148 -1 23 -5 46 -9 49 -3 3 -6 17 -6 30 0 13 -4 23 -8 23 -10 0 -42 55
-51 88 -4 14 -9 22 -12 17z m77 -286 c1 -5 3 -11 4 -14 1 -3 4 -14 5 -25 1
-11 3 -24 4 -30 0 -5 20 -19 44 -31 23 -12 43 -23 45 -24 9 -8 9 -49 1 -80 -8
-28 -15 -35 -35 -35 -32 0 -88 42 -106 80 -8 17 -16 55 -17 86 -2 49 0 56 18
61 12 3 21 12 21 21 0 16 14 8 16 -9z m-190 -171 c-2 -19 -8 -32 -15 -30 -6 1
-16 -9 -21 -24 -7 -16 -14 -23 -22 -18 -10 6 -10 4 0 -8 10 -13 10 -18 1 -24
-8 -4 -9 -3 -5 4 10 17 1 15 -46 -8 -23 -11 -47 -20 -54 -20 -6 0 -17 -7 -24
-15 -25 -30 -41 -18 -38 28 2 23 8 47 13 52 11 11 99 55 112 55 5 0 21 14 37
30 37 38 66 27 62 -22z m-19 -68 c-1 -11 -5 -20 -9 -20 -10 0 -10 4 -2 24 8
22 13 20 11 -4z m-687 -24 c0 -3 -4 -8 -10 -11 -5 -3 -10 -1 -10 4 0 6 5 11
10 11 6 0 10 -2 10 -4z m383 -335 c5 -1 5 -6 2 -11 -4 -6 -13 -9 -20 -8 -8 2
-15 -1 -16 -7 -2 -5 10 -12 25 -15 29 -5 56 -33 44 -45 -3 -4 -21 -2 -40 3
-19 5 -46 5 -63 0 -16 -5 -50 -7 -75 -4 -38 4 -41 3 -20 -5 14 -6 58 -13 99
-15 67 -3 76 -6 103 -35 23 -24 30 -40 30 -73 1 -49 -4 -69 -17 -78 -12 -9 8
-44 24 -41 6 2 8 -3 5 -11 -12 -31 57 -53 94 -30 12 8 27 12 31 9 16 -9 -20
-82 -46 -94 -37 -17 -49 -14 -78 21 -21 24 -25 38 -21 61 3 17 1 36 -5 43 -13
16 -43 19 -34 5 3 -5 1 -12 -5 -16 -6 -4 -10 5 -10 19 0 28 -30 110 -37 102
-3 -3 -24 5 -46 17 -23 12 -53 23 -67 25 -36 5 -51 23 -53 68 -1 22 -10 46
-19 55 -27 24 -22 30 25 30 101 -1 142 5 141 22 -1 12 5 15 20 13 11 -3 25 -5
29 -5z m81 -8 c-22 -16 -31 -16 -40 -1 -5 8 -2 9 9 5 10 -3 17 -3 17 2 0 4 7
8 16 8 14 0 14 -2 -2 -14z m-374 -91 c14 -14 13 -15 -4 -1 -11 7 -21 13 -23
12 -10 -8 -43 -1 -43 8 0 16 51 2 70 -19z m120 -92 c0 -5 6 -10 13 -10 6 0 29
-5 49 -10 45 -13 72 -54 87 -130 9 -51 8 -58 -14 -92 -18 -27 -38 -42 -73 -54
-50 -18 -69 -42 -64 -81 4 -25 38 -39 71 -28 15 4 21 15 21 33 -1 25 -2 25
-14 10 -13 -18 -37 -24 -49 -12 -8 8 12 46 21 40 15 -9 77 30 90 57 7 15 18
27 24 27 6 0 9 -3 6 -6 -10 -10 13 -78 34 -101 28 -31 17 -77 -24 -98 -37 -18
-76 -11 -58 10 8 9 8 15 0 20 -5 3 -10 2 -10 -2 0 -17 -71 -14 -100 4 -17 9
-30 21 -30 25 0 4 -5 8 -11 8 -8 0 -9 -4 0 -13 6 -8 7 -18 3 -22 -4 -5 1 -5
11 -2 11 4 17 1 17 -7 0 -8 6 -17 13 -19 6 -3 3 -6 -9 -6 -23 -1 -64 39 -87
84 -14 28 -14 48 -3 148 2 22 0 37 -7 37 -6 0 -8 3 -4 6 7 7 -30 86 -45 95 -5
3 -3 11 5 18 17 13 50 4 40 -12 -3 -6 -1 -7 5 -3 7 4 12 2 12 -4 0 -10 60 -38
68 -31 1 1 9 -5 17 -13 22 -22 20 -107 -3 -112 -9 -3 -22 -16 -29 -30 -14 -30
2 -22 32 15 31 39 43 73 34 99 -5 12 -6 22 -4 22 9 0 -30 36 -40 37 -5 1 -20
3 -33 5 -13 1 -30 10 -39 20 -22 25 0 52 36 43 21 -5 23 -4 12 9 -7 8 -10 20
-6 26 8 13 35 13 35 0z m-457 -47 c7 -11 108 -30 134 -25 18 4 43 -41 38 -66
-6 -28 -12 -53 -17 -71 -6 -27 18 -21 35 9 22 36 17 88 -10 107 -16 13 -16 15
8 37 24 22 27 23 47 7 30 -23 50 -78 46 -131 -2 -43 -2 -44 11 -20 14 26 11
78 -6 94 -12 13 -12 26 1 26 6 0 10 -7 10 -15 0 -8 5 -15 11 -15 5 0 8 -4 4
-9 -3 -5 -1 -12 4 -16 14 -8 -14 -97 -36 -112 -9 -7 -29 -13 -44 -13 -16 0
-30 -7 -34 -17 -14 -32 -13 -68 1 -79 22 -17 -6 -25 -48 -13 -50 13 -76 48
-74 98 2 30 -2 41 -12 41 -8 0 -12 -6 -8 -15 8 -23 -27 -37 -51 -20 -45 32
-56 133 -19 174 9 10 16 20 16 23 0 10 -34 4 -42 -7 -5 -6 -11 -6 -19 2 -9 9
-9 15 0 26 14 17 43 17 54 0z m670 -166 c8 -17 31 -50 52 -71 35 -36 37 -42
31 -84 -6 -45 -18 -62 -44 -62 -9 0 -11 7 -7 19 7 23 -7 59 -34 88 -11 12 -23
36 -26 54 -3 18 -8 36 -11 40 -5 9 13 49 21 49 3 0 11 -15 18 -33z m-319 -39
c-8 -59 -9 -93 -3 -123 5 -25 -24 -32 -56 -11 -25 17 -43 72 -27 88 5 5 18 11
28 12 11 2 24 19 33 44 21 58 34 52 25 -10z m-130 -63 c3 -8 1 -15 -4 -15 -6
0 -10 7 -10 15 0 8 2 15 4 15 2 0 6 -7 10 -15z"/>
<path d="M2616 1331 c-4 -5 -2 -12 3 -15 5 -4 12 -2 15 3 4 5 2 12 -3 15 -5 4
-12 2 -15 -3z"/>
<path d="M2626 1287 c2 -7 14 -19 27 -26 21 -13 21 -12 -2 13 -27 29 -33 32
-25 13z"/>
<path d="M2710 1149 c0 -5 5 -7 10 -4 6 3 10 8 10 11 0 2 -4 4 -10 4 -5 0 -10
-5 -10 -11z"/>
<path d="M2420 1191 c0 -6 4 -12 8 -15 5 -3 9 1 9 9 0 8 -4 15 -9 15 -4 0 -8
-4 -8 -9z"/>
<path d="M2110 551 c0 -6 4 -13 10 -16 6 -3 7 1 4 9 -7 18 -14 21 -14 7z"/>
<path d="M1940 537 c0 -2 6 -10 14 -16 11 -9 16 -9 22 1 4 7 4 10 -1 6 -4 -4
-14 -3 -22 3 -7 6 -13 9 -13 6z"/>
<path d="M1990 516 c0 -3 11 -17 25 -32 13 -14 22 -30 19 -35 -3 -5 -1 -9 5
-9 14 0 3 -56 -19 -97 -10 -18 -21 -29 -25 -25 -5 4 -5 1 0 -7 7 -12 10 -11
20 2 7 10 17 17 23 17 25 0 27 140 2 148 -5 2 -10 10 -10 18 0 9 -4 12 -10 9
-5 -3 -10 -1 -10 4 0 6 -4 11 -10 11 -5 0 -10 -2 -10 -4z"/>
<path d="M1909 263 c0 -5 -2 -15 -4 -24 -1 -9 0 -22 4 -28 4 -7 8 4 8 24 0 30
-6 50 -8 28z"/>
<path d="M1585 400 c-4 -6 -10 -8 -15 -5 -4 3 -6 -4 -3 -15 6 -23 18 -19 26
10 6 22 2 26 -8 10z"/>
<path d="M1637 311 c3 -23 2 -24 -6 -6 -8 16 -10 17 -10 3 -1 -18 24 -48 40
-48 5 0 8 12 5 28 -2 15 -5 32 -5 38 -1 6 -7 11 -14 11 -9 0 -12 -10 -10 -26z"/>
<path d="M1784 260 c5 -37 11 -46 21 -31 3 6 2 11 -4 11 -5 0 -8 9 -6 20 2 11
-1 22 -6 26 -7 4 -9 -6 -5 -26z"/>
<path d="M1499 1612 c-32 -47 -44 -75 -27 -69 7 2 12 12 12 21 -1 9 11 30 26
46 15 17 25 32 21 34 -3 2 -18 -12 -32 -32z"/>
<path d="M2271 1630 c-1 -33 11 -56 40 -73 19 -10 27 -21 23 -29 -5 -8 -2 -9
10 -5 12 5 15 3 9 -6 -4 -6 -8 -28 -9 -47 -1 -19 -2 -43 -3 -53 -1 -12 -6 -16
-13 -11 -7 4 -10 4 -6 -1 12 -13 -52 -54 -81 -51 -19 1 -25 7 -24 21 5 38 9
55 16 61 4 4 7 12 7 18 0 5 -6 1 -14 -9 -8 -11 -12 -23 -10 -27 3 -5 1 -8 -5
-8 -6 0 -8 -7 -5 -15 4 -8 1 -15 -6 -15 -10 0 -10 -3 0 -15 7 -8 9 -22 6 -31
-5 -14 -4 -15 9 -4 8 7 15 11 16 9 11 -49 8 -60 -14 -70 -31 -14 -70 -95 -64
-134 5 -41 26 -44 23 -3 -3 63 23 128 53 128 6 0 11 3 11 8 0 4 12 8 26 8 14
1 34 10 45 20 10 9 19 14 19 10 0 -4 11 6 25 22 14 17 25 38 25 48 0 26 17 50
27 40 4 -4 8 -39 8 -76 l-1 -69 22 20 c16 15 21 30 19 58 -1 21 -5 44 -9 50
-4 6 -4 11 1 10 24 -4 31 3 27 28 -3 15 -8 30 -12 33 -4 3 -15 19 -24 36 -17
31 -15 72 6 86 7 5 5 8 -5 8 -9 0 -20 -14 -26 -35 -7 -22 -7 -35 -1 -35 5 0 7
-4 4 -9 -3 -4 3 -25 14 -46 24 -48 17 -61 -20 -34 -17 13 -33 18 -42 13 -10
-6 -11 -5 -2 7 14 17 8 62 -12 101 -13 25 -19 29 -39 28 -9 -1 -31 24 -38 40
-5 13 -6 13 -6 0z m99 -211 c0 -54 -90 -151 -104 -113 -3 8 6 24 21 37 51 43
63 57 63 77 0 11 5 20 10 20 6 0 10 -10 10 -21z"/>
<path d="M2245 1545 c0 -45 10 -52 17 -12 3 14 0 31 -6 39 -9 12 -11 7 -11
-27z"/>
<path d="M2481 1574 c0 -11 3 -14 6 -6 3 7 2 16 -1 19 -3 4 -6 -2 -5 -13z"/>
<path d="M1300 1570 c0 -5 5 -10 11 -10 5 0 7 5 4 10 -3 6 -8 10 -11 10 -2 0
-4 -4 -4 -10z"/>
<path d="M1542 1553 c-13 -27 -8 -84 12 -121 9 -18 14 -38 10 -44 -4 -7 -3 -8
4 -4 16 10 15 35 -3 69 -19 37 -25 78 -13 100 5 9 6 17 4 17 -3 0 -9 -8 -14
-17z"/>
<path d="M2480 1542 c0 -5 14 -23 31 -40 19 -20 29 -38 25 -47 -3 -9 -2 -13 4
-10 15 10 12 22 -16 65 -25 37 -44 51 -44 32z"/>
<path d="M1442 1511 c-12 -10 -18 -21 -15 -25 4 -4 -5 -5 -20 -2 -17 3 -27 0
-28 -7 0 -7 -4 -2 -9 11 l-10 23 -39 -23 c-55 -31 -85 -88 -85 -159 -1 -41 -4
-55 -13 -52 -7 3 -13 14 -13 24 0 10 -4 19 -10 19 -10 0 -5 -18 17 -60 7 -14
13 -20 14 -15 0 6 6 -3 14 -19 8 -19 10 -40 4 -58 -10 -36 -4 -36 14 1 12 23
12 34 2 58 -15 36 -17 143 -3 161 6 6 8 12 4 12 -6 0 13 25 53 69 13 14 19 19
13 10 -7 -9 -9 -44 -6 -91 3 -48 1 -79 -6 -83 -7 -4 -7 -12 0 -24 5 -10 6 -21
3 -25 -3 -3 -1 -6 6 -6 7 0 9 -4 6 -10 -3 -5 -1 -10 4 -10 6 0 11 -5 11 -11 0
-5 -4 -7 -10 -4 -5 3 -10 4 -10 1 0 -7 44 -50 55 -54 19 -6 51 -11 93 -16 23
-3 51 -10 61 -16 25 -13 31 -13 31 1 0 5 -4 7 -10 4 -5 -3 -10 -2 -10 3 0 5
-15 13 -32 18 -31 7 -50 10 -105 13 -15 1 -23 10 -28 31 -4 16 -10 28 -13 27
-4 -1 -9 3 -10 8 -2 6 -7 15 -11 20 -3 6 -5 44 -4 85 4 118 7 140 17 130 5 -5
16 -5 26 0 14 7 16 2 17 -38 1 -53 17 -102 33 -102 6 0 8 -4 5 -10 -3 -5 -1
-10 4 -10 14 0 14 17 1 25 -6 4 -8 11 -5 16 4 5 3 9 -2 9 -4 0 -9 26 -11 57
-2 57 18 110 38 98 6 -4 10 -1 10 4 0 16 -14 13 -38 -8z"/>
<path d="M1472 1465 c1 -14 6 -25 10 -25 4 0 7 11 6 25 -1 14 -6 25 -10 25 -4
0 -7 -11 -6 -25z"/>
<path d="M2157 1473 c-10 -9 -9 -23 1 -23 5 0 9 7 9 15 0 17 -1 18 -10 8z"/>
<path d="M1199 1443 c-14 -37 -17 -105 -4 -110 6 -1 11 14 11 35 3 57 7 82 16
82 4 0 8 5 8 10 0 21 -21 9 -31 -17z"/>
<path d="M1773 1443 c-23 -9 -14 -47 13 -60 24 -11 25 -11 12 5 -8 9 -13 27
-12 40 0 12 1 22 0 21 0 0 -7 -3 -13 -6z"/>
<path d="M2520 1419 c0 -5 -5 -7 -12 -3 -7 4 -8 3 -4 -5 6 -9 11 -9 22 0 17
14 18 19 4 19 -5 0 -10 -5 -10 -11z"/>
<path d="M2259 1393 l-24 -28 28 24 c25 23 32 31 24 31 -2 0 -14 -12 -28 -27z"/>
<path d="M1657 1353 c-5 -10 -2 -51 4 -57 3 -3 5 10 6 29 1 35 -2 42 -10 28z"/>
<path d="M1466 1335 c4 -8 11 -15 16 -15 6 0 5 6 -2 15 -7 8 -14 15 -16 15 -2
0 -1 -7 2 -15z"/>
<path d="M2020 1335 c7 -8 10 -24 7 -35 -3 -11 -2 -22 3 -25 4 -3 11 7 14 21
7 26 -7 54 -26 54 -6 0 -5 -7 2 -15z"/>
<path d="M2160 1336 c0 -2 7 -9 15 -16 9 -7 15 -8 15 -2 0 5 -7 12 -15 16 -8
3 -15 4 -15 2z"/>
<path d="M1720 1315 c0 -8 2 -15 4 -15 2 0 6 7 10 15 3 8 1 15 -4 15 -6 0 -10
-7 -10 -15z"/>
<path d="M1894 1295 c0 -14 4 -25 8 -25 4 0 7 9 5 20 -5 29 -13 33 -13 5z"/>
<path d="M1495 1300 c3 -5 8 -10 11 -10 2 0 4 5 4 10 0 6 -5 10 -11 10 -5 0
-7 -4 -4 -10z"/>
<path d="M1450 1297 c0 -10 72 -80 98 -95 12 -7 22 -10 22 -6 0 9 -28 34 -38
34 -5 0 -26 17 -46 37 -20 21 -36 34 -36 30z"/>
<path d="M1552 1274 c10 -10 20 -16 22 -13 3 3 -5 11 -17 18 -21 13 -21 12 -5
-5z"/>
<path d="M2082 1262 c2 -17 0 -33 -6 -35 -6 -2 -9 -31 -8 -70 2 -61 0 -68 -25
-92 -16 -15 -38 -31 -50 -36 -16 -6 -23 -17 -23 -36 1 -24 2 -25 11 -10 18 31
56 63 69 59 8 -3 10 0 6 7 -4 6 0 14 8 17 21 8 30 63 18 107 -8 28 -7 37 4 41
17 6 19 62 3 72 -8 5 -10 -3 -7 -24z"/>
<path d="M2167 1272 c-18 -20 -37 -66 -37 -89 0 -22 13 -7 17 19 2 12 9 26 16
30 6 4 8 8 3 8 -4 0 -1 11 8 25 19 29 16 33 -7 7z"/>
<path d="M2470 1280 c0 -5 7 -7 15 -4 8 4 15 8 15 10 0 2 -7 4 -15 4 -8 0 -15
-4 -15 -10z"/>
<path d="M1811 1264 c0 -11 3 -14 6 -6 3 7 2 16 -1 19 -3 4 -6 -2 -5 -13z"/>
<path d="M2004 1259 c-10 -16 -13 -68 -4 -74 4 -2 6 8 5 23 -1 15 2 35 7 45
10 19 3 24 -8 6z"/>
<path d="M1294 1149 c-4 -8 -3 -10 4 -5 7 4 12 1 12 -8 0 -8 13 -17 29 -21 16
-3 34 -12 40 -19 12 -14 155 -17 165 -3 3 4 3 5 0 2 -4 -2 -16 2 -27 10 -12 9
-27 11 -41 6 -43 -17 -113 0 -158 37 -12 10 -18 11 -24 1z"/>
<path d="M1991 1123 c-1 -6 -4 -20 -7 -30 -5 -17 -5 -17 6 0 6 10 9 23 6 30
-3 9 -5 9 -5 0z"/>
<path d="M2119 1103 c-6 -16 -12 -34 -13 -41 -1 -8 -9 -18 -17 -23 -8 -5 -9
-9 -3 -9 6 0 17 7 24 15 7 8 9 15 5 15 -4 0 -3 6 2 13 11 13 24 57 17 57 -3 0
-9 -12 -15 -27z"/>
<path d="M2600 1111 c0 -6 4 -13 10 -16 6 -3 7 1 4 9 -7 18 -14 21 -14 7z"/>
<path d="M2624 1060 c2 -14 -3 -41 -11 -60 -12 -31 -12 -33 1 -20 18 19 27 73
15 91 -6 10 -8 6 -5 -11z"/>
<path d="M1940 1051 c-13 -25 -13 -51 0 -51 6 0 10 10 10 23 0 13 5 28 12 35
9 9 9 12 0 12 -6 0 -16 -9 -22 -19z"/>
<path d="M2145 1030 c3 -5 1 -10 -5 -10 -6 0 -8 -5 -5 -10 4 -6 11 -8 16 -5
12 8 11 35 -2 35 -5 0 -7 -4 -4 -10z"/>
<path d="M2396 1015 c-11 -8 -17 -17 -14 -20 2 -3 15 4 28 15 26 23 15 27 -14
5z"/>
<path d="M1156 983 c4 -16 17 -48 30 -73 13 -25 24 -50 24 -56 0 -15 -28 -26
-35 -14 -4 6 -13 10 -21 10 -8 0 -12 -5 -9 -11 4 -6 10 -8 13 -5 3 3 24 -9 46
-27 41 -33 102 -49 93 -24 -2 6 -16 12 -31 12 -33 0 -61 32 -45 51 11 13 -1
46 -27 72 -8 7 -18 31 -24 52 -12 45 -24 55 -14 13z"/>
<path d="M1685 1000 c-3 -5 -1 -10 4 -10 6 0 11 5 11 10 0 6 -2 10 -4 10 -3 0
-8 -4 -11 -10z"/>
<path d="M2350 990 c0 -5 5 -10 10 -10 6 0 10 5 10 10 0 6 -4 10 -10 10 -5 0
-10 -4 -10 -10z"/>
<path d="M1040 975 c0 -8 4 -15 10 -15 5 0 7 7 4 15 -4 8 -8 15 -10 15 -2 0
-4 -7 -4 -15z"/>
<path d="M1106 972 c-7 -12 25 -73 35 -66 5 3 9 0 9 -6 0 -6 5 -8 11 -4 8 4 2
12 -14 21 -17 8 -24 19 -21 28 4 8 1 15 -6 15 -6 0 -8 5 -5 10 3 6 4 10 1 10
-3 0 -7 -4 -10 -8z"/>
<path d="M1706 967 c3 -10 9 -15 12 -12 3 3 0 11 -7 18 -10 9 -11 8 -5 -6z"/>
<path d="M1548 949 c-2 -44 2 -59 22 -81 11 -12 20 -17 20 -12 0 6 -4 14 -10
20 -5 5 -12 27 -16 49 -7 48 -13 57 -16 24z"/>
<path d="M1736 947 c3 -10 9 -15 12 -12 3 3 0 11 -7 18 -10 9 -11 8 -5 -6z"/>
<path d="M1220 941 c0 -6 4 -13 10 -16 6 -3 7 1 4 9 -7 18 -14 21 -14 7z"/>
<path d="M1771 942 c-6 -2 -11 -8 -11 -13 0 -6 5 -7 12 -3 7 4 25 -8 46 -32
19 -21 30 -32 24 -23 -7 9 -9 19 -5 22 3 4 -2 10 -11 13 -14 5 -15 9 -4 15 8
5 20 0 33 -14 11 -13 17 -18 13 -12 -4 7 -5 14 -2 18 15 15 -64 39 -95 29z"/>
<path d="M1235 893 c10 -23 10 -43 0 -66 -5 -13 -4 -16 9 -11 18 7 22 59 6 69
-6 4 -8 11 -5 16 4 5 1 9 -5 9 -8 0 -9 -7 -5 -17z"/>
<path d="M965 880 c-3 -5 1 -10 10 -10 9 0 13 5 10 10 -3 6 -8 10 -10 10 -2 0
-7 -4 -10 -10z"/>
<path d="M2020 842 c-20 -17 -38 -68 -19 -57 5 4 9 15 9 26 0 11 4 18 9 15 5
-3 14 0 20 8 6 7 22 11 36 8 14 -2 25 0 25 4 0 16 -59 13 -80 -4z"/>
<path d="M1416 802 c-3 -6 1 -13 10 -16 8 -3 12 -10 9 -16 -3 -5 -1 -10 4 -10
15 0 13 11 -3 33 -8 10 -17 14 -20 9z"/>
<path d="M1431 718 c-12 -33 -7 -48 9 -32 12 12 21 64 10 64 -4 0 -13 -14 -19
-32z"/>
<path d="M1644 705 c11 -61 -40 -102 -114 -92 -49 6 -45 -8 4 -16 51 -8 88 5
107 39 20 33 24 80 9 89 -7 4 -9 -3 -6 -20z"/>
<path d="M2450 727 c0 -1 -4 -17 -9 -35 -6 -20 -6 -30 0 -27 5 4 9 15 9 26 0
10 5 19 10 19 6 0 10 5 10 10 0 6 -4 10 -10 10 -5 0 -10 -1 -10 -3z"/>
<path d="M2420 640 c0 -5 5 -10 10 -10 6 0 10 5 10 10 0 6 -4 10 -10 10 -5 0
-10 -4 -10 -10z"/>
<path d="M1400 610 c-26 -17 -4 -20 41 -6 l44 14 -35 1 c-19 0 -42 -3 -50 -9z"/>
<path d="M1361 576 c-13 -15 -11 -60 3 -73 5 -4 6 4 2 19 -4 17 -1 32 9 42 8
8 11 17 6 20 -5 3 -14 -1 -20 -8z"/>
<path d="M2736 307 c3 -10 9 -15 12 -12 3 3 0 11 -7 18 -10 9 -11 8 -5 -6z"/>
<path d="M746 102 c-3 -5 1 -9 9 -9 8 0 12 4 9 9 -3 4 -7 8 -9 8 -2 0 -6 -4
-9 -8z"/>
</g>
</svg>
